<mxfile host="app.diagrams.net" agent="Mozilla/5.0 (Windows NT 10.0; Win64; x64) AppleWebKit/537.36 (KHTML, like Gecko) Chrome/130.0.0.0 Safari/537.36" version="24.8.3">
  <diagram name="Page-1" id="kgxZGTw8uODMGE_oQtGz">
    <mxGraphModel grid="1" page="1" gridSize="10" guides="1" tooltips="1" connect="1" arrows="1" fold="1" pageScale="1" pageWidth="827" pageHeight="1169" math="0" shadow="0">
      <root>
        <mxCell id="0" />
        <mxCell id="1" parent="0" />
        <mxCell id="rV8VTiqXhCVp9IZoswe--19" value="User Account Management" style="rounded=1;whiteSpace=wrap;html=1;verticalAlign=top;arcSize=5;fontSize=17;" vertex="1" parent="1">
          <mxGeometry x="-650" y="390" width="1110" height="810" as="geometry" />
        </mxCell>
        <mxCell id="rV8VTiqXhCVp9IZoswe--20" value="Browse" style="rounded=1;whiteSpace=wrap;html=1;verticalAlign=top;arcSize=5;fontSize=17;" vertex="1" parent="1">
          <mxGeometry x="545.55" y="376.5" width="960" height="830" as="geometry" />
        </mxCell>
        <mxCell id="rV8VTiqXhCVp9IZoswe--21" value="Listing Management" style="rounded=1;whiteSpace=wrap;html=1;verticalAlign=top;arcSize=5;fontSize=17;" vertex="1" parent="1">
          <mxGeometry x="-315" y="1310" width="970" height="676" as="geometry" />
        </mxCell>
        <mxCell id="rV8VTiqXhCVp9IZoswe--22" value="Payment" style="rounded=1;whiteSpace=wrap;html=1;verticalAlign=top;arcSize=5;fontSize=17;" vertex="1" parent="1">
          <mxGeometry x="1600" y="540" width="300" height="660" as="geometry" />
        </mxCell>
        <mxCell id="rV8VTiqXhCVp9IZoswe--23" value="Review" style="rounded=1;whiteSpace=wrap;html=1;verticalAlign=top;arcSize=5;fontSize=17;" vertex="1" parent="1">
          <mxGeometry x="810" y="1380" width="880" height="660" as="geometry" />
        </mxCell>
        <mxCell id="2" value="" style="ellipse;fillColor=strokeColor;" vertex="1" parent="1">
          <mxGeometry x="90.55" y="421" width="30" height="30" as="geometry" />
        </mxCell>
        <mxCell id="9" value="" style="curved=1;startArrow=none;;exitX=-0.02;exitY=0.63;entryX=0.5;entryY=0;entryDx=0;entryDy=0;edgeStyle=orthogonalEdgeStyle;endArrow=open;endFill=0;" edge="1" parent="1" source="2" target="rV8VTiqXhCVp9IZoswe--28">
          <mxGeometry relative="1" as="geometry" />
        </mxCell>
        <mxCell id="rV8VTiqXhCVp9IZoswe--35" value="Click Login" style="edgeLabel;html=1;align=center;verticalAlign=middle;resizable=0;points=[];" connectable="0" vertex="1" parent="9">
          <mxGeometry x="-0.2501" y="3" relative="1" as="geometry">
            <mxPoint y="18" as="offset" />
          </mxGeometry>
        </mxCell>
        <mxCell id="rV8VTiqXhCVp9IZoswe--28" value="Login Submission Form" style="swimlane;fontStyle=0;childLayout=stackLayout;horizontal=1;startSize=30;horizontalStack=0;resizeParent=1;resizeParentMax=0;resizeLast=0;collapsible=1;marginBottom=0;whiteSpace=wrap;html=1;rounded=1;aspect=fixed;" vertex="1" parent="1">
          <mxGeometry x="-110" y="486" width="171.11" height="100" as="geometry">
            <mxRectangle x="250" y="510" width="170" height="30" as="alternateBounds" />
          </mxGeometry>
        </mxCell>
        <mxCell id="rV8VTiqXhCVp9IZoswe--30" value="do / Wait for credentials Input" style="text;strokeColor=none;fillColor=none;align=left;verticalAlign=middle;spacingLeft=4;spacingRight=4;overflow=hidden;points=[[0,0.5],[1,0.5]];portConstraint=eastwest;rotatable=0;whiteSpace=wrap;html=1;" vertex="1" parent="rV8VTiqXhCVp9IZoswe--28">
          <mxGeometry y="30" width="171.11" height="70" as="geometry" />
        </mxCell>
        <mxCell id="rV8VTiqXhCVp9IZoswe--32" value="Register Submission Form" style="swimlane;fontStyle=0;childLayout=stackLayout;horizontal=1;startSize=30;horizontalStack=0;resizeParent=1;resizeParentMax=0;resizeLast=0;collapsible=1;marginBottom=0;whiteSpace=wrap;html=1;rounded=1;aspect=fixed;" vertex="1" parent="1">
          <mxGeometry x="159" y="472.5" width="171.11" height="100" as="geometry">
            <mxRectangle x="250" y="510" width="170" height="30" as="alternateBounds" />
          </mxGeometry>
        </mxCell>
        <mxCell id="rV8VTiqXhCVp9IZoswe--33" value="do / Wait for credentials Input" style="text;strokeColor=none;fillColor=none;align=left;verticalAlign=middle;spacingLeft=4;spacingRight=4;overflow=hidden;points=[[0,0.5],[1,0.5]];portConstraint=eastwest;rotatable=0;whiteSpace=wrap;html=1;" vertex="1" parent="rV8VTiqXhCVp9IZoswe--32">
          <mxGeometry y="30" width="171.11" height="70" as="geometry" />
        </mxCell>
        <mxCell id="rV8VTiqXhCVp9IZoswe--34" value="Click Register" style="curved=1;startArrow=none;;entryX=0.5;entryY=0;entryDx=0;entryDy=0;edgeStyle=orthogonalEdgeStyle;endArrow=open;endFill=0;exitX=1;exitY=0.5;exitDx=0;exitDy=0;" edge="1" parent="1" source="2" target="rV8VTiqXhCVp9IZoswe--32">
          <mxGeometry x="-0.0875" y="-5" relative="1" as="geometry">
            <mxPoint x="169" y="441" as="sourcePoint" />
            <mxPoint x="105" y="491" as="targetPoint" />
            <mxPoint as="offset" />
          </mxGeometry>
        </mxCell>
        <mxCell id="rV8VTiqXhCVp9IZoswe--38" value="Verification" style="rounded=1;whiteSpace=wrap;html=1;arcSize=20;" vertex="1" parent="1">
          <mxGeometry x="-88.88999999999999" y="663.5" width="120" height="60" as="geometry" />
        </mxCell>
        <mxCell id="rV8VTiqXhCVp9IZoswe--41" value="Verification" style="rounded=1;whiteSpace=wrap;html=1;arcSize=20;" vertex="1" parent="1">
          <mxGeometry x="184.56" y="642.5" width="120" height="60" as="geometry" />
        </mxCell>
        <mxCell id="rV8VTiqXhCVp9IZoswe--44" value="" style="curved=1;startArrow=none;;entryX=1;entryY=0.5;entryDx=0;entryDy=0;edgeStyle=orthogonalEdgeStyle;endArrow=open;endFill=0;exitX=0;exitY=0.5;exitDx=0;exitDy=0;" edge="1" parent="1" source="rV8VTiqXhCVp9IZoswe--41" target="rV8VTiqXhCVp9IZoswe--30">
          <mxGeometry relative="1" as="geometry">
            <mxPoint x="179" y="451" as="sourcePoint" />
            <mxPoint x="335" y="491" as="targetPoint" />
          </mxGeometry>
        </mxCell>
        <mxCell id="rV8VTiqXhCVp9IZoswe--45" value="[Credentials meet requirements]" style="edgeLabel;html=1;align=center;verticalAlign=middle;resizable=0;points=[];" connectable="0" vertex="1" parent="rV8VTiqXhCVp9IZoswe--44">
          <mxGeometry x="-0.1761" y="-9" relative="1" as="geometry">
            <mxPoint x="-24" y="-19" as="offset" />
          </mxGeometry>
        </mxCell>
        <mxCell id="rV8VTiqXhCVp9IZoswe--50" value="" style="ellipse;fillColor=strokeColor;" vertex="1" parent="1">
          <mxGeometry x="649" y="376.5" width="30" height="30" as="geometry" />
        </mxCell>
        <mxCell id="rV8VTiqXhCVp9IZoswe--51" value="Search" style="swimlane;fontStyle=0;childLayout=stackLayout;horizontal=1;startSize=30;horizontalStack=0;resizeParent=1;resizeParentMax=0;resizeLast=0;collapsible=1;marginBottom=0;whiteSpace=wrap;html=1;rounded=1;aspect=fixed;" vertex="1" parent="1">
          <mxGeometry x="599" y="471.5" width="171.11" height="100" as="geometry">
            <mxRectangle x="250" y="510" width="170" height="30" as="alternateBounds" />
          </mxGeometry>
        </mxCell>
        <mxCell id="rV8VTiqXhCVp9IZoswe--52" value="entry / Search bar is empty&lt;div&gt;do / Wait for credentials Input&lt;/div&gt;" style="text;strokeColor=none;fillColor=none;align=left;verticalAlign=middle;spacingLeft=4;spacingRight=4;overflow=hidden;points=[[0,0.5],[1,0.5]];portConstraint=eastwest;rotatable=0;whiteSpace=wrap;html=1;" vertex="1" parent="rV8VTiqXhCVp9IZoswe--51">
          <mxGeometry y="30" width="171.11" height="70" as="geometry" />
        </mxCell>
        <mxCell id="rV8VTiqXhCVp9IZoswe--53" value="" style="curved=1;startArrow=none;;entryX=0.5;entryY=0;entryDx=0;entryDy=0;edgeStyle=orthogonalEdgeStyle;endArrow=open;endFill=0;exitX=0.5;exitY=1;exitDx=0;exitDy=0;" edge="1" parent="1" source="rV8VTiqXhCVp9IZoswe--50" target="rV8VTiqXhCVp9IZoswe--51">
          <mxGeometry relative="1" as="geometry">
            <mxPoint x="659" y="401.5" as="sourcePoint" />
            <mxPoint x="595" y="451.5" as="targetPoint" />
          </mxGeometry>
        </mxCell>
        <mxCell id="rV8VTiqXhCVp9IZoswe--59" value="" style="curved=1;startArrow=none;;entryX=0.5;entryY=0;entryDx=0;entryDy=0;edgeStyle=orthogonalEdgeStyle;endArrow=open;endFill=0;exitX=0.5;exitY=1;exitDx=0;exitDy=0;" edge="1" parent="1" source="rV8VTiqXhCVp9IZoswe--51" target="rV8VTiqXhCVp9IZoswe--60">
          <mxGeometry relative="1" as="geometry">
            <mxPoint x="699" y="611.5" as="sourcePoint" />
            <mxPoint x="720" y="676.5" as="targetPoint" />
          </mxGeometry>
        </mxCell>
        <mxCell id="rV8VTiqXhCVp9IZoswe--61" value="Click Search" style="edgeLabel;html=1;align=center;verticalAlign=middle;resizable=0;points=[];" connectable="0" vertex="1" parent="rV8VTiqXhCVp9IZoswe--59">
          <mxGeometry x="-0.1926" y="3" relative="1" as="geometry">
            <mxPoint as="offset" />
          </mxGeometry>
        </mxCell>
        <mxCell id="PDoHeW5xkxOKr_nrV42Z-117" style="edgeStyle=orthogonalEdgeStyle;rounded=0;orthogonalLoop=1;jettySize=auto;html=1;exitX=1;exitY=0.5;exitDx=0;exitDy=0;entryX=0;entryY=0.5;entryDx=0;entryDy=0;" edge="1" parent="1" source="rV8VTiqXhCVp9IZoswe--60" target="rV8VTiqXhCVp9IZoswe--70">
          <mxGeometry relative="1" as="geometry" />
        </mxCell>
        <mxCell id="PDoHeW5xkxOKr_nrV42Z-118" value="No" style="edgeLabel;html=1;align=center;verticalAlign=middle;resizable=0;points=[];" vertex="1" connectable="0" parent="PDoHeW5xkxOKr_nrV42Z-117">
          <mxGeometry x="-0.17" relative="1" as="geometry">
            <mxPoint y="-1" as="offset" />
          </mxGeometry>
        </mxCell>
        <mxCell id="rV8VTiqXhCVp9IZoswe--60" value="No Results?" style="rhombus;whiteSpace=wrap;html=1;" vertex="1" parent="1">
          <mxGeometry x="649" y="656.5" width="80" height="80" as="geometry" />
        </mxCell>
        <mxCell id="rV8VTiqXhCVp9IZoswe--69" value="Results" style="swimlane;fontStyle=0;childLayout=stackLayout;horizontal=1;startSize=30;horizontalStack=0;resizeParent=1;resizeParentMax=0;resizeLast=0;collapsible=1;marginBottom=0;whiteSpace=wrap;html=1;rounded=1;aspect=fixed;" vertex="1" parent="1">
          <mxGeometry x="819.99" y="500" width="171.11" height="100" as="geometry">
            <mxRectangle x="250" y="510" width="170" height="30" as="alternateBounds" />
          </mxGeometry>
        </mxCell>
        <mxCell id="rV8VTiqXhCVp9IZoswe--70" value="do / Display results" style="text;strokeColor=none;fillColor=none;align=left;verticalAlign=middle;spacingLeft=4;spacingRight=4;overflow=hidden;points=[[0,0.5],[1,0.5]];portConstraint=eastwest;rotatable=0;whiteSpace=wrap;html=1;" vertex="1" parent="rV8VTiqXhCVp9IZoswe--69">
          <mxGeometry y="30" width="171.11" height="70" as="geometry" />
        </mxCell>
        <mxCell id="rV8VTiqXhCVp9IZoswe--76" value="No Results" style="swimlane;fontStyle=0;childLayout=stackLayout;horizontal=1;startSize=30;horizontalStack=0;resizeParent=1;resizeParentMax=0;resizeLast=0;collapsible=1;marginBottom=0;whiteSpace=wrap;html=1;rounded=1;aspect=fixed;" vertex="1" parent="1">
          <mxGeometry x="619" y="801.5" width="171.11" height="100" as="geometry">
            <mxRectangle x="250" y="510" width="170" height="30" as="alternateBounds" />
          </mxGeometry>
        </mxCell>
        <mxCell id="rV8VTiqXhCVp9IZoswe--77" value="do / Display no results message" style="text;strokeColor=none;fillColor=none;align=left;verticalAlign=middle;spacingLeft=4;spacingRight=4;overflow=hidden;points=[[0,0.5],[1,0.5]];portConstraint=eastwest;rotatable=0;whiteSpace=wrap;html=1;" vertex="1" parent="rV8VTiqXhCVp9IZoswe--76">
          <mxGeometry y="30" width="171.11" height="70" as="geometry" />
        </mxCell>
        <mxCell id="rV8VTiqXhCVp9IZoswe--87" value="" style="ellipse;shape=endState;fillColor=strokeColor;aspect=fixed;" vertex="1" parent="1">
          <mxGeometry x="750" y="1280" width="29" height="29" as="geometry" />
        </mxCell>
        <mxCell id="rV8VTiqXhCVp9IZoswe--99" value="" style="curved=1;startArrow=none;;edgeStyle=orthogonalEdgeStyle;endArrow=open;endFill=0;exitX=0.998;exitY=0.136;exitDx=0;exitDy=0;entryX=0;entryY=1;entryDx=0;entryDy=0;exitPerimeter=0;" edge="1" parent="1" source="rV8VTiqXhCVp9IZoswe--21" target="rV8VTiqXhCVp9IZoswe--87">
          <mxGeometry relative="1" as="geometry">
            <mxPoint x="401" y="960" as="sourcePoint" />
            <mxPoint x="760" y="1304" as="targetPoint" />
          </mxGeometry>
        </mxCell>
        <mxCell id="rV8VTiqXhCVp9IZoswe--100" value="Click Logout" style="edgeLabel;html=1;align=center;verticalAlign=middle;resizable=0;points=[];" connectable="0" vertex="1" parent="rV8VTiqXhCVp9IZoswe--99">
          <mxGeometry x="-0.3005" y="39" relative="1" as="geometry">
            <mxPoint as="offset" />
          </mxGeometry>
        </mxCell>
        <mxCell id="rV8VTiqXhCVp9IZoswe--103" value="" style="curved=1;startArrow=none;;edgeStyle=orthogonalEdgeStyle;endArrow=open;endFill=0;entryX=0.5;entryY=0;entryDx=0;entryDy=0;exitX=0.232;exitY=1.004;exitDx=0;exitDy=0;exitPerimeter=0;" edge="1" parent="1" source="rV8VTiqXhCVp9IZoswe--20" target="rV8VTiqXhCVp9IZoswe--87">
          <mxGeometry relative="1" as="geometry">
            <mxPoint x="970" y="1410" as="sourcePoint" />
            <mxPoint x="785" y="1315" as="targetPoint" />
          </mxGeometry>
        </mxCell>
        <mxCell id="rV8VTiqXhCVp9IZoswe--104" value="Click Logout" style="edgeLabel;html=1;align=center;verticalAlign=middle;resizable=0;points=[];" connectable="0" vertex="1" parent="rV8VTiqXhCVp9IZoswe--103">
          <mxGeometry x="-0.3005" y="39" relative="1" as="geometry">
            <mxPoint x="-41" as="offset" />
          </mxGeometry>
        </mxCell>
        <mxCell id="rV8VTiqXhCVp9IZoswe--107" value="" style="ellipse;fillColor=strokeColor;" vertex="1" parent="1">
          <mxGeometry x="1730" y="595" width="30" height="30" as="geometry" />
        </mxCell>
        <mxCell id="rV8VTiqXhCVp9IZoswe--108" value="Payment" style="swimlane;fontStyle=0;childLayout=stackLayout;horizontal=1;startSize=30;horizontalStack=0;resizeParent=1;resizeParentMax=0;resizeLast=0;collapsible=1;marginBottom=0;whiteSpace=wrap;html=1;rounded=1;aspect=fixed;" vertex="1" parent="1">
          <mxGeometry x="1671" y="670.5" width="171.11" height="100" as="geometry">
            <mxRectangle x="250" y="510" width="170" height="30" as="alternateBounds" />
          </mxGeometry>
        </mxCell>
        <mxCell id="rV8VTiqXhCVp9IZoswe--109" value="do / wait for PayPal API to respond" style="text;strokeColor=none;fillColor=none;align=left;verticalAlign=middle;spacingLeft=4;spacingRight=4;overflow=hidden;points=[[0,0.5],[1,0.5]];portConstraint=eastwest;rotatable=0;whiteSpace=wrap;html=1;" vertex="1" parent="rV8VTiqXhCVp9IZoswe--108">
          <mxGeometry y="30" width="171.11" height="70" as="geometry" />
        </mxCell>
        <mxCell id="rV8VTiqXhCVp9IZoswe--115" value="Payment Success?" style="rhombus;whiteSpace=wrap;html=1;" vertex="1" parent="1">
          <mxGeometry x="1670" y="898" width="80" height="80" as="geometry" />
        </mxCell>
        <mxCell id="rV8VTiqXhCVp9IZoswe--116" value="" style="curved=1;startArrow=none;;edgeStyle=orthogonalEdgeStyle;endArrow=open;endFill=0;entryX=0.5;entryY=0;entryDx=0;entryDy=0;exitX=0.478;exitY=1;exitDx=0;exitDy=0;exitPerimeter=0;" edge="1" parent="1" source="rV8VTiqXhCVp9IZoswe--109" target="rV8VTiqXhCVp9IZoswe--115">
          <mxGeometry relative="1" as="geometry">
            <mxPoint x="1867" y="632.5" as="sourcePoint" />
            <mxPoint x="1869" y="673.5" as="targetPoint" />
            <Array as="points">
              <mxPoint x="1753" y="850" />
              <mxPoint x="1710" y="850" />
            </Array>
          </mxGeometry>
        </mxCell>
        <mxCell id="rV8VTiqXhCVp9IZoswe--117" value="Click Complete Payment" style="edgeLabel;html=1;align=center;verticalAlign=middle;resizable=0;points=[];" connectable="0" vertex="1" parent="rV8VTiqXhCVp9IZoswe--116">
          <mxGeometry x="-0.0266" y="4" relative="1" as="geometry">
            <mxPoint as="offset" />
          </mxGeometry>
        </mxCell>
        <mxCell id="rV8VTiqXhCVp9IZoswe--118" value="" style="curved=1;startArrow=none;;edgeStyle=orthogonalEdgeStyle;endArrow=open;endFill=0;entryX=1;entryY=0.5;entryDx=0;entryDy=0;exitX=0.5;exitY=1;exitDx=0;exitDy=0;" edge="1" parent="1" source="rV8VTiqXhCVp9IZoswe--115" target="rV8VTiqXhCVp9IZoswe--139">
          <mxGeometry relative="1" as="geometry">
            <mxPoint x="1866.8200000000002" y="962.5" as="sourcePoint" />
            <mxPoint x="1865.8200000000002" y="1056.5" as="targetPoint" />
          </mxGeometry>
        </mxCell>
        <mxCell id="rV8VTiqXhCVp9IZoswe--119" value="Yes" style="edgeLabel;html=1;align=center;verticalAlign=middle;resizable=0;points=[];" connectable="0" vertex="1" parent="rV8VTiqXhCVp9IZoswe--118">
          <mxGeometry x="-0.0266" y="4" relative="1" as="geometry">
            <mxPoint x="-4" y="-39" as="offset" />
          </mxGeometry>
        </mxCell>
        <mxCell id="rV8VTiqXhCVp9IZoswe--127" value="" style="curved=1;startArrow=none;;edgeStyle=orthogonalEdgeStyle;endArrow=open;endFill=0;exitX=-0.004;exitY=0.032;exitDx=0;exitDy=0;entryX=1;entryY=1;entryDx=0;entryDy=0;exitPerimeter=0;" edge="1" parent="1" source="rV8VTiqXhCVp9IZoswe--23" target="rV8VTiqXhCVp9IZoswe--87">
          <mxGeometry relative="1" as="geometry">
            <mxPoint x="676" y="1486" as="sourcePoint" />
            <mxPoint x="764" y="1315" as="targetPoint" />
          </mxGeometry>
        </mxCell>
        <mxCell id="rV8VTiqXhCVp9IZoswe--128" value="Click Logout" style="edgeLabel;html=1;align=center;verticalAlign=middle;resizable=0;points=[];" connectable="0" vertex="1" parent="rV8VTiqXhCVp9IZoswe--127">
          <mxGeometry x="-0.3005" y="39" relative="1" as="geometry">
            <mxPoint x="94" y="-52" as="offset" />
          </mxGeometry>
        </mxCell>
        <mxCell id="rV8VTiqXhCVp9IZoswe--129" value="" style="curved=1;startArrow=none;;edgeStyle=orthogonalEdgeStyle;endArrow=open;endFill=0;entryX=0.028;entryY=0.981;entryDx=0;entryDy=0;exitX=0;exitY=0.5;exitDx=0;exitDy=0;entryPerimeter=0;" edge="1" parent="1" source="rV8VTiqXhCVp9IZoswe--115" target="rV8VTiqXhCVp9IZoswe--109">
          <mxGeometry relative="1" as="geometry">
            <mxPoint x="1832" y="907" as="sourcePoint" />
            <mxPoint x="1866.5549999999998" y="1020" as="targetPoint" />
          </mxGeometry>
        </mxCell>
        <mxCell id="rV8VTiqXhCVp9IZoswe--130" value="No" style="edgeLabel;html=1;align=center;verticalAlign=middle;resizable=0;points=[];" connectable="0" vertex="1" parent="rV8VTiqXhCVp9IZoswe--129">
          <mxGeometry x="-0.0266" y="4" relative="1" as="geometry">
            <mxPoint x="1" y="-11" as="offset" />
          </mxGeometry>
        </mxCell>
        <mxCell id="rV8VTiqXhCVp9IZoswe--131" value="Listing" style="swimlane;fontStyle=0;childLayout=stackLayout;horizontal=1;startSize=30;horizontalStack=0;resizeParent=1;resizeParentMax=0;resizeLast=0;collapsible=1;marginBottom=0;whiteSpace=wrap;html=1;rounded=1;aspect=fixed;" vertex="1" parent="1">
          <mxGeometry x="1059.99" y="405" width="171.11" height="100" as="geometry">
            <mxRectangle x="250" y="510" width="170" height="30" as="alternateBounds" />
          </mxGeometry>
        </mxCell>
        <mxCell id="rV8VTiqXhCVp9IZoswe--132" value="do / Display listing details" style="text;strokeColor=none;fillColor=none;align=left;verticalAlign=middle;spacingLeft=4;spacingRight=4;overflow=hidden;points=[[0,0.5],[1,0.5]];portConstraint=eastwest;rotatable=0;whiteSpace=wrap;html=1;" vertex="1" parent="rV8VTiqXhCVp9IZoswe--131">
          <mxGeometry y="30" width="171.11" height="70" as="geometry" />
        </mxCell>
        <mxCell id="rV8VTiqXhCVp9IZoswe--133" value="" style="curved=1;startArrow=none;;edgeStyle=orthogonalEdgeStyle;endArrow=open;endFill=0;entryX=-0.021;entryY=0.633;entryDx=0;entryDy=0;exitX=1;exitY=0.5;exitDx=0;exitDy=0;entryPerimeter=0;" edge="1" parent="1" source="rV8VTiqXhCVp9IZoswe--70" target="rV8VTiqXhCVp9IZoswe--132">
          <mxGeometry relative="1" as="geometry">
            <mxPoint x="1771.99" y="657.5" as="sourcePoint" />
            <mxPoint x="1776.99" y="741.5" as="targetPoint" />
          </mxGeometry>
        </mxCell>
        <mxCell id="rV8VTiqXhCVp9IZoswe--134" value="Click Listing" style="edgeLabel;html=1;align=center;verticalAlign=middle;resizable=0;points=[];" connectable="0" vertex="1" parent="rV8VTiqXhCVp9IZoswe--133">
          <mxGeometry x="-0.0266" y="4" relative="1" as="geometry">
            <mxPoint x="24" y="-5" as="offset" />
          </mxGeometry>
        </mxCell>
        <mxCell id="rV8VTiqXhCVp9IZoswe--138" value="Payment Success" style="swimlane;fontStyle=0;childLayout=stackLayout;horizontal=1;startSize=30;horizontalStack=0;resizeParent=1;resizeParentMax=0;resizeLast=0;collapsible=1;marginBottom=0;whiteSpace=wrap;html=1;rounded=1;aspect=fixed;" vertex="1" parent="1">
          <mxGeometry x="1300" y="1069" width="171.11" height="100" as="geometry">
            <mxRectangle x="250" y="510" width="170" height="30" as="alternateBounds" />
          </mxGeometry>
        </mxCell>
        <mxCell id="rV8VTiqXhCVp9IZoswe--139" value="do / Display success message" style="text;strokeColor=none;fillColor=none;align=left;verticalAlign=middle;spacingLeft=4;spacingRight=4;overflow=hidden;points=[[0,0.5],[1,0.5]];portConstraint=eastwest;rotatable=0;whiteSpace=wrap;html=1;" vertex="1" parent="rV8VTiqXhCVp9IZoswe--138">
          <mxGeometry y="30" width="171.11" height="70" as="geometry" />
        </mxCell>
        <mxCell id="rV8VTiqXhCVp9IZoswe--145" value="Make Offer Form" style="swimlane;fontStyle=0;childLayout=stackLayout;horizontal=1;startSize=30;horizontalStack=0;resizeParent=1;resizeParentMax=0;resizeLast=0;collapsible=1;marginBottom=0;whiteSpace=wrap;html=1;rounded=1;aspect=fixed;" vertex="1" parent="1">
          <mxGeometry x="1049.99" y="721.5" width="171.11" height="100" as="geometry">
            <mxRectangle x="250" y="510" width="170" height="30" as="alternateBounds" />
          </mxGeometry>
        </mxCell>
        <mxCell id="rV8VTiqXhCVp9IZoswe--146" value="do / Wait for inputs" style="text;strokeColor=none;fillColor=none;align=left;verticalAlign=middle;spacingLeft=4;spacingRight=4;overflow=hidden;points=[[0,0.5],[1,0.5]];portConstraint=eastwest;rotatable=0;whiteSpace=wrap;html=1;" vertex="1" parent="rV8VTiqXhCVp9IZoswe--145">
          <mxGeometry y="30" width="171.11" height="70" as="geometry" />
        </mxCell>
        <mxCell id="rV8VTiqXhCVp9IZoswe--147" value="" style="curved=1;startArrow=none;;edgeStyle=orthogonalEdgeStyle;endArrow=open;endFill=0;entryX=0.5;entryY=0;entryDx=0;entryDy=0;exitX=0.503;exitY=0.999;exitDx=0;exitDy=0;exitPerimeter=0;" edge="1" parent="1" source="rV8VTiqXhCVp9IZoswe--173" target="rV8VTiqXhCVp9IZoswe--145">
          <mxGeometry relative="1" as="geometry">
            <mxPoint x="971.99" y="601.5" as="sourcePoint" />
            <mxPoint x="1055.99" y="545.5" as="targetPoint" />
          </mxGeometry>
        </mxCell>
        <mxCell id="rV8VTiqXhCVp9IZoswe--177" value="Click Select" style="edgeLabel;html=1;align=center;verticalAlign=middle;resizable=0;points=[];" connectable="0" vertex="1" parent="rV8VTiqXhCVp9IZoswe--147">
          <mxGeometry x="0.3163" y="-3" relative="1" as="geometry">
            <mxPoint as="offset" />
          </mxGeometry>
        </mxCell>
        <mxCell id="rV8VTiqXhCVp9IZoswe--151" value="" style="curved=1;startArrow=none;;edgeStyle=orthogonalEdgeStyle;endArrow=open;endFill=0;entryX=0.5;entryY=0;entryDx=0;entryDy=0;" edge="1" parent="1" target="rV8VTiqXhCVp9IZoswe--170">
          <mxGeometry relative="1" as="geometry">
            <mxPoint x="1129.99" y="821.5" as="sourcePoint" />
            <mxPoint x="1145.99" y="731.5" as="targetPoint" />
          </mxGeometry>
        </mxCell>
        <mxCell id="rV8VTiqXhCVp9IZoswe--152" value="Click submit" style="edgeLabel;html=1;align=center;verticalAlign=middle;resizable=0;points=[];" connectable="0" vertex="1" parent="rV8VTiqXhCVp9IZoswe--151">
          <mxGeometry x="-0.0266" y="4" relative="1" as="geometry">
            <mxPoint x="24" y="-5" as="offset" />
          </mxGeometry>
        </mxCell>
        <mxCell id="rV8VTiqXhCVp9IZoswe--153" value="Access Offer" style="swimlane;fontStyle=0;childLayout=stackLayout;horizontal=1;startSize=30;horizontalStack=0;resizeParent=1;resizeParentMax=0;resizeLast=0;collapsible=1;marginBottom=0;whiteSpace=wrap;html=1;rounded=1;aspect=fixed;" vertex="1" parent="1">
          <mxGeometry x="399.00000000000006" y="1807" width="171.11" height="100" as="geometry">
            <mxRectangle x="250" y="510" width="170" height="30" as="alternateBounds" />
          </mxGeometry>
        </mxCell>
        <mxCell id="rV8VTiqXhCVp9IZoswe--154" value="do / Wait for inputs" style="text;strokeColor=none;fillColor=none;align=left;verticalAlign=middle;spacingLeft=4;spacingRight=4;overflow=hidden;points=[[0,0.5],[1,0.5]];portConstraint=eastwest;rotatable=0;whiteSpace=wrap;html=1;" vertex="1" parent="rV8VTiqXhCVp9IZoswe--153">
          <mxGeometry y="30" width="171.11" height="70" as="geometry" />
        </mxCell>
        <mxCell id="rV8VTiqXhCVp9IZoswe--159" value="Manage Listing" style="swimlane;fontStyle=0;childLayout=stackLayout;horizontal=1;startSize=30;horizontalStack=0;resizeParent=1;resizeParentMax=0;resizeLast=0;collapsible=1;marginBottom=0;whiteSpace=wrap;html=1;rounded=1;aspect=fixed;" vertex="1" parent="1">
          <mxGeometry x="-146.54999999999995" y="1707" width="171.11" height="100" as="geometry">
            <mxRectangle x="250" y="510" width="170" height="30" as="alternateBounds" />
          </mxGeometry>
        </mxCell>
        <mxCell id="rV8VTiqXhCVp9IZoswe--160" value="do / Wait for selection" style="text;strokeColor=none;fillColor=none;align=left;verticalAlign=middle;spacingLeft=4;spacingRight=4;overflow=hidden;points=[[0,0.5],[1,0.5]];portConstraint=eastwest;rotatable=0;whiteSpace=wrap;html=1;" vertex="1" parent="rV8VTiqXhCVp9IZoswe--159">
          <mxGeometry y="30" width="171.11" height="70" as="geometry" />
        </mxCell>
        <mxCell id="rV8VTiqXhCVp9IZoswe--161" value="" style="curved=1;startArrow=none;;edgeStyle=orthogonalEdgeStyle;endArrow=open;endFill=0;exitX=1.001;exitY=0.401;exitDx=0;exitDy=0;exitPerimeter=0;entryX=-0.031;entryY=0.34;entryDx=0;entryDy=0;entryPerimeter=0;" edge="1" parent="1" source="rV8VTiqXhCVp9IZoswe--160" target="rV8VTiqXhCVp9IZoswe--154">
          <mxGeometry relative="1" as="geometry">
            <mxPoint x="319" y="1741" as="sourcePoint" />
            <mxPoint x="180" y="1430" as="targetPoint" />
            <Array as="points">
              <mxPoint x="260" y="1765" />
              <mxPoint x="260" y="1861" />
            </Array>
          </mxGeometry>
        </mxCell>
        <mxCell id="PDoHeW5xkxOKr_nrV42Z-104" value="Select Manage Offers" style="edgeLabel;html=1;align=center;verticalAlign=middle;resizable=0;points=[];" vertex="1" connectable="0" parent="rV8VTiqXhCVp9IZoswe--161">
          <mxGeometry x="-0.1465" y="-18" relative="1" as="geometry">
            <mxPoint as="offset" />
          </mxGeometry>
        </mxCell>
        <mxCell id="rV8VTiqXhCVp9IZoswe--163" value="View Listings" style="swimlane;fontStyle=0;childLayout=stackLayout;horizontal=1;startSize=30;horizontalStack=0;resizeParent=1;resizeParentMax=0;resizeLast=0;collapsible=1;marginBottom=0;whiteSpace=wrap;html=1;rounded=1;aspect=fixed;" vertex="1" parent="1">
          <mxGeometry x="-139.99999999999994" y="1505" width="171.11" height="100" as="geometry">
            <mxRectangle x="250" y="510" width="170" height="30" as="alternateBounds" />
          </mxGeometry>
        </mxCell>
        <mxCell id="rV8VTiqXhCVp9IZoswe--164" value="do / Wait for selection" style="text;strokeColor=none;fillColor=none;align=left;verticalAlign=middle;spacingLeft=4;spacingRight=4;overflow=hidden;points=[[0,0.5],[1,0.5]];portConstraint=eastwest;rotatable=0;whiteSpace=wrap;html=1;" vertex="1" parent="rV8VTiqXhCVp9IZoswe--163">
          <mxGeometry y="30" width="171.11" height="70" as="geometry" />
        </mxCell>
        <mxCell id="rV8VTiqXhCVp9IZoswe--165" value="" style="curved=1;startArrow=none;;edgeStyle=orthogonalEdgeStyle;endArrow=open;endFill=0;exitX=0.467;exitY=0.989;exitDx=0;exitDy=0;exitPerimeter=0;entryX=0.5;entryY=0;entryDx=0;entryDy=0;" edge="1" parent="1">
          <mxGeometry relative="1" as="geometry">
            <mxPoint x="-110.0916299999999" y="1604.23" as="sourcePoint" />
            <mxPoint x="-110.99500000000035" y="1707" as="targetPoint" />
            <Array as="points" />
          </mxGeometry>
        </mxCell>
        <mxCell id="PDoHeW5xkxOKr_nrV42Z-17" value="Select Listing" style="edgeLabel;html=1;align=center;verticalAlign=middle;resizable=0;points=[];" vertex="1" connectable="0" parent="rV8VTiqXhCVp9IZoswe--165">
          <mxGeometry x="-0.3301" y="1" relative="1" as="geometry">
            <mxPoint as="offset" />
          </mxGeometry>
        </mxCell>
        <mxCell id="rV8VTiqXhCVp9IZoswe--167" value="Update Offer Status" style="rounded=1;whiteSpace=wrap;html=1;arcSize=20;" vertex="1" parent="1">
          <mxGeometry x="110" y="1820" width="120" height="60" as="geometry" />
        </mxCell>
        <mxCell id="rV8VTiqXhCVp9IZoswe--170" value="Offer Accepted?" style="rhombus;whiteSpace=wrap;html=1;" vertex="1" parent="1">
          <mxGeometry x="1089.99" y="865" width="80" height="80" as="geometry" />
        </mxCell>
        <mxCell id="rV8VTiqXhCVp9IZoswe--171" value="" style="curved=1;startArrow=none;;edgeStyle=orthogonalEdgeStyle;endArrow=open;endFill=0;entryX=-0.005;entryY=0.173;entryDx=0;entryDy=0;exitX=1;exitY=0.5;exitDx=0;exitDy=0;entryPerimeter=0;" edge="1" parent="1" source="rV8VTiqXhCVp9IZoswe--170" target="rV8VTiqXhCVp9IZoswe--22">
          <mxGeometry relative="1" as="geometry">
            <mxPoint x="1832" y="907" as="sourcePoint" />
            <mxPoint x="1481" y="1020" as="targetPoint" />
          </mxGeometry>
        </mxCell>
        <mxCell id="rV8VTiqXhCVp9IZoswe--172" value="Yes" style="edgeLabel;html=1;align=center;verticalAlign=middle;resizable=0;points=[];" connectable="0" vertex="1" parent="rV8VTiqXhCVp9IZoswe--171">
          <mxGeometry x="-0.0266" y="4" relative="1" as="geometry">
            <mxPoint x="1" y="-11" as="offset" />
          </mxGeometry>
        </mxCell>
        <mxCell id="rV8VTiqXhCVp9IZoswe--175" value="" style="curved=1;startArrow=none;;edgeStyle=orthogonalEdgeStyle;endArrow=open;endFill=0;entryX=0.5;entryY=0;entryDx=0;entryDy=0;exitX=0.503;exitY=0.999;exitDx=0;exitDy=0;exitPerimeter=0;" edge="1" parent="1" source="rV8VTiqXhCVp9IZoswe--132" target="rV8VTiqXhCVp9IZoswe--173">
          <mxGeometry relative="1" as="geometry">
            <mxPoint x="1145.99" y="505" as="sourcePoint" />
            <mxPoint x="1135.99" y="722" as="targetPoint" />
          </mxGeometry>
        </mxCell>
        <mxCell id="rV8VTiqXhCVp9IZoswe--176" value="Click Select Availablity" style="edgeLabel;html=1;align=center;verticalAlign=middle;resizable=0;points=[];" connectable="0" vertex="1" parent="rV8VTiqXhCVp9IZoswe--175">
          <mxGeometry x="-0.0266" y="4" relative="1" as="geometry">
            <mxPoint x="24" y="-5" as="offset" />
          </mxGeometry>
        </mxCell>
        <mxCell id="rV8VTiqXhCVp9IZoswe--173" value="Availablity Form" style="swimlane;fontStyle=0;childLayout=stackLayout;horizontal=1;startSize=30;horizontalStack=0;resizeParent=1;resizeParentMax=0;resizeLast=0;collapsible=1;marginBottom=0;whiteSpace=wrap;html=1;rounded=1;aspect=fixed;" vertex="1" parent="1">
          <mxGeometry x="1059.99" y="560" width="171.11" height="100" as="geometry">
            <mxRectangle x="250" y="510" width="170" height="30" as="alternateBounds" />
          </mxGeometry>
        </mxCell>
        <mxCell id="rV8VTiqXhCVp9IZoswe--174" value="do / Wait for User to Select Availability" style="text;strokeColor=none;fillColor=none;align=left;verticalAlign=middle;spacingLeft=4;spacingRight=4;overflow=hidden;points=[[0,0.5],[1,0.5]];portConstraint=eastwest;rotatable=0;whiteSpace=wrap;html=1;" vertex="1" parent="rV8VTiqXhCVp9IZoswe--173">
          <mxGeometry y="30" width="171.11" height="70" as="geometry" />
        </mxCell>
        <mxCell id="rV8VTiqXhCVp9IZoswe--178" value="" style="curved=1;startArrow=none;;edgeStyle=orthogonalEdgeStyle;endArrow=open;endFill=0;entryX=0.094;entryY=0.985;entryDx=0;entryDy=0;exitX=0;exitY=0.5;exitDx=0;exitDy=0;entryPerimeter=0;" edge="1" parent="1" source="rV8VTiqXhCVp9IZoswe--170" target="rV8VTiqXhCVp9IZoswe--146">
          <mxGeometry relative="1" as="geometry">
            <mxPoint x="1180" y="915" as="sourcePoint" />
            <mxPoint x="1588" y="664" as="targetPoint" />
          </mxGeometry>
        </mxCell>
        <mxCell id="rV8VTiqXhCVp9IZoswe--179" value="No" style="edgeLabel;html=1;align=center;verticalAlign=middle;resizable=0;points=[];" connectable="0" vertex="1" parent="rV8VTiqXhCVp9IZoswe--178">
          <mxGeometry x="-0.0266" y="4" relative="1" as="geometry">
            <mxPoint x="1" y="-11" as="offset" />
          </mxGeometry>
        </mxCell>
        <mxCell id="PpGPIsZ3Np3g3zicRUwW-10" value="" style="curved=1;endArrow=classic;html=1;rounded=0;fontSize=12;startSize=8;endSize=8;exitX=0.5;exitY=1;exitDx=0;exitDy=0;entryX=0.464;entryY=0.002;entryDx=0;entryDy=0;entryPerimeter=0;" edge="1" parent="1" source="rV8VTiqXhCVp9IZoswe--107" target="rV8VTiqXhCVp9IZoswe--108">
          <mxGeometry width="50" height="50" relative="1" as="geometry">
            <mxPoint x="1790" y="670" as="sourcePoint" />
            <mxPoint x="1840" y="620" as="targetPoint" />
            <Array as="points" />
          </mxGeometry>
        </mxCell>
        <mxCell id="PpGPIsZ3Np3g3zicRUwW-12" value="Login" style="curved=1;endArrow=classic;html=1;rounded=0;fontSize=12;startSize=8;endSize=8;exitX=0.499;exitY=1.002;exitDx=0;exitDy=0;exitPerimeter=0;entryX=0.5;entryY=0;entryDx=0;entryDy=0;" edge="1" parent="1" source="rV8VTiqXhCVp9IZoswe--30" target="rV8VTiqXhCVp9IZoswe--38">
          <mxGeometry x="0.008" width="50" height="50" relative="1" as="geometry">
            <mxPoint x="-130" y="681" as="sourcePoint" />
            <mxPoint x="-80" y="631" as="targetPoint" />
            <Array as="points" />
            <mxPoint as="offset" />
          </mxGeometry>
        </mxCell>
        <mxCell id="PpGPIsZ3Np3g3zicRUwW-13" value="Return to log page&amp;nbsp;&lt;div&gt;[invalid input]&lt;/div&gt;" style="curved=1;endArrow=classic;html=1;rounded=0;fontSize=12;startSize=8;endSize=8;exitX=0;exitY=0.5;exitDx=0;exitDy=0;entryX=0;entryY=0.5;entryDx=0;entryDy=0;" edge="1" parent="1" source="rV8VTiqXhCVp9IZoswe--38" target="rV8VTiqXhCVp9IZoswe--30">
          <mxGeometry width="50" height="50" relative="1" as="geometry">
            <mxPoint x="-225" y="596" as="sourcePoint" />
            <mxPoint x="-224" y="711" as="targetPoint" />
            <Array as="points">
              <mxPoint x="-150" y="681" />
              <mxPoint x="-150" y="561" />
            </Array>
          </mxGeometry>
        </mxCell>
        <mxCell id="PpGPIsZ3Np3g3zicRUwW-14" value="Return to register page&amp;nbsp;&lt;div&gt;[invalid input]&lt;/div&gt;" style="curved=1;endArrow=classic;html=1;rounded=0;fontSize=12;startSize=8;endSize=8;exitX=1;exitY=0.5;exitDx=0;exitDy=0;entryX=1;entryY=0.5;entryDx=0;entryDy=0;" edge="1" parent="1" source="rV8VTiqXhCVp9IZoswe--41" target="rV8VTiqXhCVp9IZoswe--33">
          <mxGeometry x="0.0011" width="50" height="50" relative="1" as="geometry">
            <mxPoint x="169" y="706" as="sourcePoint" />
            <mxPoint x="143" y="526" as="targetPoint" />
            <Array as="points">
              <mxPoint x="360" y="651" />
              <mxPoint x="400" y="571" />
            </Array>
            <mxPoint as="offset" />
          </mxGeometry>
        </mxCell>
        <mxCell id="PpGPIsZ3Np3g3zicRUwW-15" value="Register" style="curved=1;endArrow=classic;html=1;rounded=0;fontSize=12;startSize=8;endSize=8;exitX=0.494;exitY=0.997;exitDx=0;exitDy=0;exitPerimeter=0;entryX=0.5;entryY=0;entryDx=0;entryDy=0;" edge="1" parent="1" source="rV8VTiqXhCVp9IZoswe--33" target="rV8VTiqXhCVp9IZoswe--41">
          <mxGeometry x="-0.0031" width="50" height="50" relative="1" as="geometry">
            <mxPoint x="244.06" y="601" as="sourcePoint" />
            <mxPoint x="245" y="641" as="targetPoint" />
            <Array as="points" />
            <mxPoint as="offset" />
          </mxGeometry>
        </mxCell>
        <mxCell id="PpGPIsZ3Np3g3zicRUwW-17" value="View Account Details" style="swimlane;fontStyle=0;childLayout=stackLayout;horizontal=1;startSize=30;horizontalStack=0;resizeParent=1;resizeParentMax=0;resizeLast=0;collapsible=1;marginBottom=0;whiteSpace=wrap;html=1;rounded=1;aspect=fixed;" vertex="1" parent="1">
          <mxGeometry x="-412.99999999999994" y="1057" width="140" height="100" as="geometry">
            <mxRectangle x="250" y="510" width="170" height="30" as="alternateBounds" />
          </mxGeometry>
        </mxCell>
        <mxCell id="PpGPIsZ3Np3g3zicRUwW-18" value="&lt;div&gt;do/ Display user details&lt;br&gt;&lt;/div&gt;" style="text;strokeColor=none;fillColor=none;align=left;verticalAlign=middle;spacingLeft=4;spacingRight=4;overflow=hidden;points=[[0,0.5],[1,0.5]];portConstraint=eastwest;rotatable=0;whiteSpace=wrap;html=1;" vertex="1" parent="PpGPIsZ3Np3g3zicRUwW-17">
          <mxGeometry y="30" width="140" height="70" as="geometry" />
        </mxCell>
        <mxCell id="PpGPIsZ3Np3g3zicRUwW-21" value="" style="curved=1;endArrow=classic;html=1;rounded=0;fontSize=12;startSize=8;endSize=8;exitX=-0.006;exitY=0.909;exitDx=0;exitDy=0;exitPerimeter=0;entryX=1.001;entryY=0.321;entryDx=0;entryDy=0;entryPerimeter=0;" edge="1" parent="1" source="rV8VTiqXhCVp9IZoswe--20" target="PpGPIsZ3Np3g3zicRUwW-18">
          <mxGeometry width="50" height="50" relative="1" as="geometry">
            <mxPoint x="180" y="920" as="sourcePoint" />
            <mxPoint x="230" y="870" as="targetPoint" />
            <Array as="points" />
          </mxGeometry>
        </mxCell>
        <mxCell id="PpGPIsZ3Np3g3zicRUwW-22" value="Select profile" style="edgeLabel;html=1;align=center;verticalAlign=middle;resizable=0;points=[];fontSize=12;" connectable="0" vertex="1" parent="PpGPIsZ3Np3g3zicRUwW-21">
          <mxGeometry x="-0.4655" relative="1" as="geometry">
            <mxPoint x="-433" y="-5" as="offset" />
          </mxGeometry>
        </mxCell>
        <mxCell id="PpGPIsZ3Np3g3zicRUwW-23" value="" style="curved=1;endArrow=classic;html=1;rounded=0;fontSize=12;startSize=8;endSize=8;exitX=0.067;exitY=1.005;exitDx=0;exitDy=0;entryX=0.486;entryY=1.002;entryDx=0;entryDy=0;entryPerimeter=0;exitPerimeter=0;" edge="1" parent="1" source="rV8VTiqXhCVp9IZoswe--23" target="PpGPIsZ3Np3g3zicRUwW-18">
          <mxGeometry width="50" height="50" relative="1" as="geometry">
            <mxPoint x="554" y="968" as="sourcePoint" />
            <mxPoint x="335" y="964" as="targetPoint" />
            <Array as="points">
              <mxPoint x="290" y="2100" />
              <mxPoint x="-360" y="2030" />
              <mxPoint x="-370" y="1880" />
              <mxPoint x="-370" y="1340" />
            </Array>
          </mxGeometry>
        </mxCell>
        <mxCell id="PpGPIsZ3Np3g3zicRUwW-24" value="Select profile" style="edgeLabel;html=1;align=center;verticalAlign=middle;resizable=0;points=[];fontSize=12;" connectable="0" vertex="1" parent="PpGPIsZ3Np3g3zicRUwW-23">
          <mxGeometry x="-0.4655" relative="1" as="geometry">
            <mxPoint x="-731" y="-890" as="offset" />
          </mxGeometry>
        </mxCell>
        <mxCell id="PpGPIsZ3Np3g3zicRUwW-25" value="" style="curved=1;endArrow=classic;html=1;rounded=0;fontSize=12;startSize=8;endSize=8;exitX=0.25;exitY=0;exitDx=0;exitDy=0;entryX=0.998;entryY=0.918;entryDx=0;entryDy=0;entryPerimeter=0;" edge="1" parent="1" source="rV8VTiqXhCVp9IZoswe--21" target="PpGPIsZ3Np3g3zicRUwW-18">
          <mxGeometry width="50" height="50" relative="1" as="geometry">
            <mxPoint x="550" y="1134" as="sourcePoint" />
            <mxPoint x="-263" y="1131" as="targetPoint" />
            <Array as="points" />
          </mxGeometry>
        </mxCell>
        <mxCell id="PpGPIsZ3Np3g3zicRUwW-26" value="Select profile" style="edgeLabel;html=1;align=center;verticalAlign=middle;resizable=0;points=[];fontSize=12;" connectable="0" vertex="1" parent="PpGPIsZ3Np3g3zicRUwW-25">
          <mxGeometry x="-0.4655" relative="1" as="geometry">
            <mxPoint x="-85" y="-67" as="offset" />
          </mxGeometry>
        </mxCell>
        <mxCell id="PpGPIsZ3Np3g3zicRUwW-30" value="Click&amp;nbsp;&lt;div&gt;Forget Password&lt;/div&gt;" style="curved=1;endArrow=classic;html=1;rounded=0;fontSize=12;startSize=8;endSize=8;exitX=-0.009;exitY=0.055;exitDx=0;exitDy=0;exitPerimeter=0;entryX=1.003;entryY=0.22;entryDx=0;entryDy=0;entryPerimeter=0;" edge="1" parent="1" source="rV8VTiqXhCVp9IZoswe--30" target="PpGPIsZ3Np3g3zicRUwW-32">
          <mxGeometry width="50" height="50" relative="1" as="geometry">
            <mxPoint x="-100" y="751" as="sourcePoint" />
            <mxPoint x="-50" y="701" as="targetPoint" />
            <Array as="points" />
          </mxGeometry>
        </mxCell>
        <mxCell id="PpGPIsZ3Np3g3zicRUwW-31" value="Forget Password" style="swimlane;fontStyle=0;childLayout=stackLayout;horizontal=1;startSize=30;horizontalStack=0;resizeParent=1;resizeParentMax=0;resizeLast=0;collapsible=1;marginBottom=0;whiteSpace=wrap;html=1;rounded=1;aspect=fixed;" vertex="1" parent="1">
          <mxGeometry x="-490" y="472.5" width="171.11" height="100" as="geometry">
            <mxRectangle x="250" y="510" width="170" height="30" as="alternateBounds" />
          </mxGeometry>
        </mxCell>
        <mxCell id="PpGPIsZ3Np3g3zicRUwW-32" value="do / Wait for credentials Input" style="text;strokeColor=none;fillColor=none;align=left;verticalAlign=middle;spacingLeft=4;spacingRight=4;overflow=hidden;points=[[0,0.5],[1,0.5]];portConstraint=eastwest;rotatable=0;whiteSpace=wrap;html=1;" vertex="1" parent="PpGPIsZ3Np3g3zicRUwW-31">
          <mxGeometry y="30" width="171.11" height="70" as="geometry" />
        </mxCell>
        <mxCell id="PpGPIsZ3Np3g3zicRUwW-33" value="Verification" style="rounded=1;whiteSpace=wrap;html=1;arcSize=20;" vertex="1" parent="1">
          <mxGeometry x="-464.44" y="656" width="120" height="60" as="geometry" />
        </mxCell>
        <mxCell id="PpGPIsZ3Np3g3zicRUwW-34" value="Reset Password" style="curved=1;endArrow=classic;html=1;rounded=0;fontSize=12;startSize=8;endSize=8;entryX=0.5;entryY=0;entryDx=0;entryDy=0;exitX=0.499;exitY=1.009;exitDx=0;exitDy=0;exitPerimeter=0;" edge="1" parent="1" source="PpGPIsZ3Np3g3zicRUwW-32" target="PpGPIsZ3Np3g3zicRUwW-33">
          <mxGeometry x="0.0092" width="50" height="50" relative="1" as="geometry">
            <mxPoint x="-318" y="561" as="sourcePoint" />
            <mxPoint x="-340" y="664" as="targetPoint" />
            <Array as="points" />
            <mxPoint as="offset" />
          </mxGeometry>
        </mxCell>
        <mxCell id="PpGPIsZ3Np3g3zicRUwW-35" value="Return to&amp;nbsp;&lt;div&gt;forget password page&amp;nbsp;&lt;div&gt;[invalid input]&lt;/div&gt;&lt;/div&gt;" style="curved=1;endArrow=classic;html=1;rounded=0;fontSize=12;startSize=8;endSize=8;exitX=0;exitY=0.5;exitDx=0;exitDy=0;entryX=0;entryY=0.5;entryDx=0;entryDy=0;" edge="1" parent="1" source="PpGPIsZ3Np3g3zicRUwW-33" target="PpGPIsZ3Np3g3zicRUwW-32">
          <mxGeometry x="0.0442" width="50" height="50" relative="1" as="geometry">
            <mxPoint x="-399" y="669" as="sourcePoint" />
            <mxPoint x="-420" y="526" as="targetPoint" />
            <Array as="points">
              <mxPoint x="-550" y="681" />
              <mxPoint x="-530" y="551" />
            </Array>
            <mxPoint as="offset" />
          </mxGeometry>
        </mxCell>
        <mxCell id="PpGPIsZ3Np3g3zicRUwW-36" value="" style="curved=1;startArrow=none;;entryX=-0.012;entryY=0.261;entryDx=0;entryDy=0;edgeStyle=orthogonalEdgeStyle;endArrow=open;endFill=0;exitX=1;exitY=0.5;exitDx=0;exitDy=0;entryPerimeter=0;" edge="1" parent="1" source="PpGPIsZ3Np3g3zicRUwW-33" target="rV8VTiqXhCVp9IZoswe--30">
          <mxGeometry relative="1" as="geometry">
            <mxPoint x="195" y="683" as="sourcePoint" />
            <mxPoint x="71" y="561" as="targetPoint" />
            <Array as="points">
              <mxPoint x="-240" y="686" />
              <mxPoint x="-240" y="534" />
            </Array>
          </mxGeometry>
        </mxCell>
        <mxCell id="PpGPIsZ3Np3g3zicRUwW-37" value="[Credentials meet requirements]" style="edgeLabel;html=1;align=center;verticalAlign=middle;resizable=0;points=[];" connectable="0" vertex="1" parent="PpGPIsZ3Np3g3zicRUwW-36">
          <mxGeometry x="-0.1761" y="-9" relative="1" as="geometry">
            <mxPoint x="-9" y="-39" as="offset" />
          </mxGeometry>
        </mxCell>
        <mxCell id="PpGPIsZ3Np3g3zicRUwW-38" value="" style="curved=1;endArrow=classic;html=1;rounded=0;fontSize=12;startSize=8;endSize=8;exitX=0;exitY=0.5;exitDx=0;exitDy=0;entryX=0.462;entryY=1.01;entryDx=0;entryDy=0;entryPerimeter=0;" edge="1" parent="1" source="PpGPIsZ3Np3g3zicRUwW-18" target="PpGPIsZ3Np3g3zicRUwW-40">
          <mxGeometry width="50" height="50" relative="1" as="geometry">
            <mxPoint x="-620" y="1102" as="sourcePoint" />
            <mxPoint x="-522.9090909090912" y="1167.9999999999998" as="targetPoint" />
            <Array as="points">
              <mxPoint x="-500" y="1108" />
            </Array>
          </mxGeometry>
        </mxCell>
        <mxCell id="PpGPIsZ3Np3g3zicRUwW-41" value="Click Edit Profile" style="edgeLabel;html=1;align=center;verticalAlign=middle;resizable=0;points=[];fontSize=12;" connectable="0" vertex="1" parent="PpGPIsZ3Np3g3zicRUwW-38">
          <mxGeometry x="0.3617" y="-7" relative="1" as="geometry">
            <mxPoint as="offset" />
          </mxGeometry>
        </mxCell>
        <mxCell id="PpGPIsZ3Np3g3zicRUwW-39" value="Manage Account Details" style="swimlane;fontStyle=0;childLayout=stackLayout;horizontal=1;startSize=30;horizontalStack=0;resizeParent=1;resizeParentMax=0;resizeLast=0;collapsible=1;marginBottom=0;whiteSpace=wrap;html=1;rounded=1;aspect=fixed;" vertex="1" parent="1">
          <mxGeometry x="-613" y="948" width="200" height="100" as="geometry">
            <mxRectangle x="250" y="510" width="170" height="30" as="alternateBounds" />
          </mxGeometry>
        </mxCell>
        <mxCell id="PpGPIsZ3Np3g3zicRUwW-40" value="do/ Wait for user to make selection" style="text;strokeColor=none;fillColor=none;align=left;verticalAlign=middle;spacingLeft=4;spacingRight=4;overflow=hidden;points=[[0,0.5],[1,0.5]];portConstraint=eastwest;rotatable=0;whiteSpace=wrap;html=1;" vertex="1" parent="PpGPIsZ3Np3g3zicRUwW-39">
          <mxGeometry y="30" width="200" height="70" as="geometry" />
        </mxCell>
        <mxCell id="PpGPIsZ3Np3g3zicRUwW-44" value="Edit User Details" style="swimlane;fontStyle=0;childLayout=stackLayout;horizontal=1;startSize=30;horizontalStack=0;resizeParent=1;resizeParentMax=0;resizeLast=0;collapsible=1;marginBottom=0;whiteSpace=wrap;html=1;rounded=1;aspect=fixed;" vertex="1" parent="1">
          <mxGeometry x="-317.66" y="758" width="171.11" height="100" as="geometry">
            <mxRectangle x="250" y="510" width="170" height="30" as="alternateBounds" />
          </mxGeometry>
        </mxCell>
        <mxCell id="PpGPIsZ3Np3g3zicRUwW-45" value="do / Wait for credentials Input" style="text;strokeColor=none;fillColor=none;align=left;verticalAlign=middle;spacingLeft=4;spacingRight=4;overflow=hidden;points=[[0,0.5],[1,0.5]];portConstraint=eastwest;rotatable=0;whiteSpace=wrap;html=1;" vertex="1" parent="PpGPIsZ3Np3g3zicRUwW-44">
          <mxGeometry y="30" width="171.11" height="70" as="geometry" />
        </mxCell>
        <mxCell id="PpGPIsZ3Np3g3zicRUwW-48" value="Change Password" style="swimlane;fontStyle=0;childLayout=stackLayout;horizontal=1;startSize=30;horizontalStack=0;resizeParent=1;resizeParentMax=0;resizeLast=0;collapsible=1;marginBottom=0;whiteSpace=wrap;html=1;rounded=1;aspect=fixed;" vertex="1" parent="1">
          <mxGeometry x="-256.55" y="888" width="171.11" height="100" as="geometry">
            <mxRectangle x="250" y="510" width="170" height="30" as="alternateBounds" />
          </mxGeometry>
        </mxCell>
        <mxCell id="PpGPIsZ3Np3g3zicRUwW-49" value="do / Wait for credentials Input" style="text;strokeColor=none;fillColor=none;align=left;verticalAlign=middle;spacingLeft=4;spacingRight=4;overflow=hidden;points=[[0,0.5],[1,0.5]];portConstraint=eastwest;rotatable=0;whiteSpace=wrap;html=1;" vertex="1" parent="PpGPIsZ3Np3g3zicRUwW-48">
          <mxGeometry y="30" width="171.11" height="70" as="geometry" />
        </mxCell>
        <mxCell id="PpGPIsZ3Np3g3zicRUwW-51" value="Selects&amp;nbsp;&lt;div&gt;edit user details&lt;/div&gt;" style="curved=1;endArrow=classic;html=1;rounded=0;fontSize=12;startSize=8;endSize=8;exitX=0.574;exitY=0.004;exitDx=0;exitDy=0;exitPerimeter=0;entryX=0;entryY=0.5;entryDx=0;entryDy=0;" edge="1" parent="1" source="PpGPIsZ3Np3g3zicRUwW-39" target="PpGPIsZ3Np3g3zicRUwW-45">
          <mxGeometry x="0.1279" y="-17" width="50" height="50" relative="1" as="geometry">
            <mxPoint x="-120" y="968" as="sourcePoint" />
            <mxPoint x="-70" y="918" as="targetPoint" />
            <Array as="points">
              <mxPoint x="-510" y="858" />
            </Array>
            <mxPoint as="offset" />
          </mxGeometry>
        </mxCell>
        <mxCell id="PpGPIsZ3Np3g3zicRUwW-52" value="Selects&lt;div&gt;change password&lt;/div&gt;" style="curved=1;endArrow=classic;html=1;rounded=0;fontSize=12;startSize=8;endSize=8;exitX=1.005;exitY=0.276;exitDx=0;exitDy=0;exitPerimeter=0;entryX=-0.004;entryY=0.392;entryDx=0;entryDy=0;entryPerimeter=0;" edge="1" parent="1" source="PpGPIsZ3Np3g3zicRUwW-40" target="PpGPIsZ3Np3g3zicRUwW-49">
          <mxGeometry x="-0.0028" width="50" height="50" relative="1" as="geometry">
            <mxPoint x="-388" y="1018" as="sourcePoint" />
            <mxPoint x="-220" y="938" as="targetPoint" />
            <Array as="points">
              <mxPoint x="-390" y="988" />
            </Array>
            <mxPoint as="offset" />
          </mxGeometry>
        </mxCell>
        <mxCell id="PpGPIsZ3Np3g3zicRUwW-53" value="Verification" style="rounded=1;whiteSpace=wrap;html=1;arcSize=20;" vertex="1" parent="1">
          <mxGeometry x="143.45" y="788" width="120" height="60" as="geometry" />
        </mxCell>
        <mxCell id="PpGPIsZ3Np3g3zicRUwW-54" value="Verification" style="rounded=1;whiteSpace=wrap;html=1;arcSize=20;" vertex="1" parent="1">
          <mxGeometry x="184.56" y="918" width="120" height="60" as="geometry" />
        </mxCell>
        <mxCell id="PpGPIsZ3Np3g3zicRUwW-55" value="&lt;span style=&quot;caret-color: rgba(0, 0, 0, 0); color: rgba(0, 0, 0, 0); font-family: monospace; font-size: 0px; text-align: start; background-color: rgb(251, 251, 251);&quot;&gt;%3CmxGraphModel%3E%3Croot%3E%3CmxCell%20id%3D%220%22%2F%3E%3CmxCell%20id%3D%221%22%20parent%3D%220%22%2F%3E%3CmxCell%20id%3D%222%22%20value%3D%22%22%20style%3D%22curved%3D1%3BendArrow%3Dclassic%3Bhtml%3D1%3Brounded%3D0%3BfontSize%3D12%3BstartSize%3D8%3BendSize%3D8%3BexitX%3D1.013%3BexitY%3D0.426%3BexitDx%3D0%3BexitDy%3D0%3BexitPerimeter%3D0%3BentryX%3D0%3BentryY%3D0.5%3BentryDx%3D0%3BentryDy%3D0%3B%22%20edge%3D%221%22%20parent%3D%221%22%3E%3CmxGeometry%20width%3D%2250%22%20height%3D%2250%22%20relative%3D%221%22%20as%3D%22geometry%22%3E%3CmxPoint%20x%3D%22-138%22%20y%3D%22900%22%20as%3D%22sourcePoint%22%2F%3E%3CmxPoint%20x%3D%2210%22%20y%3D%22905%22%20as%3D%22targetPoint%22%2F%3E%3CArray%20as%3D%22points%22%3E%3CmxPoint%20x%3D%22-60%22%20y%3D%22910%22%2F%3E%3C%2FArray%3E%3C%2FmxGeometry%3E%3C%2FmxCell%3E%3C%2Froot%3E%3C%2FmxGraphModel%3E&lt;/span&gt;" style="curved=1;endArrow=classic;html=1;rounded=0;fontSize=12;startSize=8;endSize=8;exitX=1.013;exitY=0.771;exitDx=0;exitDy=0;exitPerimeter=0;entryX=0;entryY=0.75;entryDx=0;entryDy=0;" edge="1" parent="1" source="PpGPIsZ3Np3g3zicRUwW-45" target="PpGPIsZ3Np3g3zicRUwW-53">
          <mxGeometry x="-0.0146" y="-28" width="50" height="50" relative="1" as="geometry">
            <mxPoint x="-86.55" y="898" as="sourcePoint" />
            <mxPoint x="-36.55" y="848" as="targetPoint" />
            <Array as="points">
              <mxPoint x="-56.55" y="848" />
            </Array>
            <mxPoint as="offset" />
          </mxGeometry>
        </mxCell>
        <mxCell id="PpGPIsZ3Np3g3zicRUwW-58" value="Confirm Edit" style="edgeLabel;html=1;align=center;verticalAlign=middle;resizable=0;points=[];fontSize=12;" connectable="0" vertex="1" parent="PpGPIsZ3Np3g3zicRUwW-55">
          <mxGeometry x="-0.1885" y="1" relative="1" as="geometry">
            <mxPoint x="-1" y="-5" as="offset" />
          </mxGeometry>
        </mxCell>
        <mxCell id="PpGPIsZ3Np3g3zicRUwW-56" value="&lt;span style=&quot;caret-color: rgba(0, 0, 0, 0); color: rgba(0, 0, 0, 0); font-family: monospace; font-size: 0px; text-align: start; background-color: rgb(251, 251, 251);&quot;&gt;%3CmxGraphModel%3E%3Croot%3E%3CmxCell%20id%3D%220%22%2F%3E%3CmxCell%20id%3D%221%22%20parent%3D%220%22%2F%3E%3CmxCell%20id%3D%222%22%20value%3D%22%22%20style%3D%22curved%3D1%3BendArrow%3Dclassic%3Bhtml%3D1%3Brounded%3D0%3BfontSize%3D12%3BstartSize%3D8%3BendSize%3D8%3BexitX%3D1.013%3BexitY%3D0.426%3BexitDx%3D0%3BexitDy%3D0%3BexitPerimeter%3D0%3BentryX%3D0%3BentryY%3D0.5%3BentryDx%3D0%3BentryDy%3D0%3B%22%20edge%3D%221%22%20parent%3D%221%22%3E%3CmxGeometry%20width%3D%2250%22%20height%3D%2250%22%20relative%3D%221%22%20as%3D%22geometry%22%3E%3CmxPoint%20x%3D%22-138%22%20y%3D%22900%22%20as%3D%22sourcePoint%22%2F%3E%3CmxPoint%20x%3D%2210%22%20y%3D%22905%22%20as%3D%22targetPoint%22%2F%3E%3CArray%20as%3D%22points%22%3E%3CmxPoint%20x%3D%22-60%22%20y%3D%22910%22%2F%3E%3C%2FArray%3E%3C%2FmxGeometry%3E%3C%2FmxCell%3E%3C%2Froot%3E%3C%2FmxGraphModel%3E&lt;/span&gt;" style="curved=1;endArrow=classic;html=1;rounded=0;fontSize=12;startSize=8;endSize=8;exitX=1;exitY=0.5;exitDx=0;exitDy=0;entryX=0;entryY=0.5;entryDx=0;entryDy=0;" edge="1" parent="1" source="PpGPIsZ3Np3g3zicRUwW-49" target="PpGPIsZ3Np3g3zicRUwW-54">
          <mxGeometry width="50" height="50" relative="1" as="geometry">
            <mxPoint x="-134.55" y="828" as="sourcePoint" />
            <mxPoint x="13.45" y="833" as="targetPoint" />
            <Array as="points">
              <mxPoint x="-36.55" y="978" />
            </Array>
          </mxGeometry>
        </mxCell>
        <mxCell id="PpGPIsZ3Np3g3zicRUwW-57" value="Change Password" style="edgeLabel;html=1;align=center;verticalAlign=middle;resizable=0;points=[];fontSize=12;" connectable="0" vertex="1" parent="PpGPIsZ3Np3g3zicRUwW-56">
          <mxGeometry x="-0.1395" y="-2" relative="1" as="geometry">
            <mxPoint x="8" y="-11" as="offset" />
          </mxGeometry>
        </mxCell>
        <mxCell id="PpGPIsZ3Np3g3zicRUwW-59" value="Return to Change Password page&amp;nbsp;&lt;div&gt;[invalid input]&lt;/div&gt;" style="curved=1;endArrow=classic;html=1;rounded=0;fontSize=12;startSize=8;endSize=8;exitX=0;exitY=0.25;exitDx=0;exitDy=0;entryX=1;entryY=0.25;entryDx=0;entryDy=0;" edge="1" parent="1" source="PpGPIsZ3Np3g3zicRUwW-54" target="PpGPIsZ3Np3g3zicRUwW-48">
          <mxGeometry x="0.0697" y="6" width="50" height="50" relative="1" as="geometry">
            <mxPoint x="308.45" y="700" as="sourcePoint" />
            <mxPoint x="333.45" y="565" as="targetPoint" />
            <Array as="points">
              <mxPoint x="113.45" y="898" />
            </Array>
            <mxPoint as="offset" />
          </mxGeometry>
        </mxCell>
        <mxCell id="PpGPIsZ3Np3g3zicRUwW-60" value="Return to Change Password page&amp;nbsp;&lt;div&gt;[invalid input]&lt;/div&gt;" style="curved=1;endArrow=classic;html=1;rounded=0;fontSize=12;startSize=8;endSize=8;exitX=0;exitY=0.25;exitDx=0;exitDy=0;entryX=0.993;entryY=0.224;entryDx=0;entryDy=0;entryPerimeter=0;" edge="1" parent="1" source="PpGPIsZ3Np3g3zicRUwW-53" target="PpGPIsZ3Np3g3zicRUwW-45">
          <mxGeometry x="0.0697" y="6" width="50" height="50" relative="1" as="geometry">
            <mxPoint x="254.45" y="928" as="sourcePoint" />
            <mxPoint x="-75.55" y="923" as="targetPoint" />
            <Array as="points">
              <mxPoint x="-6.55" y="788" />
            </Array>
            <mxPoint as="offset" />
          </mxGeometry>
        </mxCell>
        <mxCell id="PpGPIsZ3Np3g3zicRUwW-62" value="Go to browse by default" style="curved=1;endArrow=classic;html=1;rounded=0;fontSize=12;startSize=8;endSize=8;exitX=0.5;exitY=1;exitDx=0;exitDy=0;entryX=0.001;entryY=0.458;entryDx=0;entryDy=0;entryPerimeter=0;" edge="1" parent="1" source="rV8VTiqXhCVp9IZoswe--38" target="rV8VTiqXhCVp9IZoswe--20">
          <mxGeometry x="-0.0013" y="11" width="50" height="50" relative="1" as="geometry">
            <mxPoint x="315" y="695" as="sourcePoint" />
            <mxPoint x="340" y="560" as="targetPoint" />
            <Array as="points">
              <mxPoint x="330" y="780" />
            </Array>
            <mxPoint as="offset" />
          </mxGeometry>
        </mxCell>
        <mxCell id="PpGPIsZ3Np3g3zicRUwW-63" value="&lt;span style=&quot;caret-color: rgb(0, 0, 0); color: rgb(0, 0, 0); font-family: Helvetica; font-size: 11px; font-style: normal; font-variant-caps: normal; font-weight: 400; letter-spacing: normal; orphans: auto; text-align: center; text-indent: 0px; text-transform: none; white-space: nowrap; widows: auto; word-spacing: 0px; -webkit-text-stroke-width: 0px; background-color: rgb(255, 255, 255); text-decoration: none; display: inline !important; float: none;&quot;&gt;[Credentials meet requirements]&lt;/span&gt;" style="curved=1;endArrow=classic;html=1;rounded=0;fontSize=12;startSize=8;endSize=8;exitX=1;exitY=0.5;exitDx=0;exitDy=0;entryX=1;entryY=0.25;entryDx=0;entryDy=0;" edge="1" parent="1" source="PpGPIsZ3Np3g3zicRUwW-53" target="PpGPIsZ3Np3g3zicRUwW-17">
          <mxGeometry x="0.7403" y="-5" width="50" height="50" relative="1" as="geometry">
            <mxPoint x="-19" y="746" as="sourcePoint" />
            <mxPoint x="557" y="760" as="targetPoint" />
            <Array as="points">
              <mxPoint x="590" y="1110" />
            </Array>
            <mxPoint as="offset" />
          </mxGeometry>
        </mxCell>
        <mxCell id="PpGPIsZ3Np3g3zicRUwW-64" value="&lt;span style=&quot;caret-color: rgb(0, 0, 0); color: rgb(0, 0, 0); font-family: Helvetica; font-size: 11px; font-style: normal; font-variant-caps: normal; font-weight: 400; letter-spacing: normal; orphans: auto; text-align: center; text-indent: 0px; text-transform: none; white-space: nowrap; widows: auto; word-spacing: 0px; -webkit-text-stroke-width: 0px; background-color: rgb(255, 255, 255); text-decoration: none; display: inline !important; float: none;&quot;&gt;[Credentials meet requirements]&lt;/span&gt;" style="curved=1;endArrow=classic;html=1;rounded=0;fontSize=12;startSize=8;endSize=8;exitX=0.5;exitY=1;exitDx=0;exitDy=0;entryX=1;entryY=0;entryDx=0;entryDy=0;" edge="1" parent="1" source="PpGPIsZ3Np3g3zicRUwW-54" target="PpGPIsZ3Np3g3zicRUwW-17">
          <mxGeometry x="0.3419" y="-4" width="50" height="50" relative="1" as="geometry">
            <mxPoint x="273" y="828" as="sourcePoint" />
            <mxPoint x="-263" y="1092" as="targetPoint" />
            <Array as="points">
              <mxPoint x="220" y="1068" />
            </Array>
            <mxPoint x="-1" as="offset" />
          </mxGeometry>
        </mxCell>
        <mxCell id="PpGPIsZ3Np3g3zicRUwW-65" value="Select Home" style="curved=1;endArrow=classic;html=1;rounded=0;fontSize=12;startSize=8;endSize=8;exitX=1.009;exitY=0.735;exitDx=0;exitDy=0;exitPerimeter=0;entryX=-0.002;entryY=0.942;entryDx=0;entryDy=0;entryPerimeter=0;" edge="1" parent="1" source="PpGPIsZ3Np3g3zicRUwW-18" target="rV8VTiqXhCVp9IZoswe--20">
          <mxGeometry width="50" height="50" relative="1" as="geometry">
            <mxPoint x="550" y="1134" as="sourcePoint" />
            <mxPoint x="-263" y="1131" as="targetPoint" />
            <Array as="points" />
          </mxGeometry>
        </mxCell>
        <mxCell id="9z_sz9Uvfd6QXb82SshP-9" value="" style="ellipse;fillColor=strokeColor;" vertex="1" parent="1">
          <mxGeometry x="880" y="1440" width="30" height="30" as="geometry" />
        </mxCell>
        <mxCell id="9z_sz9Uvfd6QXb82SshP-10" value="Click Rate Service/Product" style="curved=1;startArrow=none;;entryX=0.5;entryY=0;entryDx=0;entryDy=0;edgeStyle=orthogonalEdgeStyle;endArrow=open;endFill=0;exitX=1;exitY=0.5;exitDx=0;exitDy=0;" edge="1" parent="1">
          <mxGeometry x="-0.0888" y="-5" relative="1" as="geometry">
            <mxPoint x="910" y="1450" as="sourcePoint" />
            <mxPoint x="1034" y="1487" as="targetPoint" />
            <mxPoint as="offset" />
          </mxGeometry>
        </mxCell>
        <mxCell id="9z_sz9Uvfd6QXb82SshP-11" value="Idle" style="swimlane;fontStyle=0;childLayout=stackLayout;horizontal=1;startSize=30;horizontalStack=0;resizeParent=1;resizeParentMax=0;resizeLast=0;collapsible=1;marginBottom=0;whiteSpace=wrap;html=1;rounded=1;aspect=fixed;" vertex="1" parent="1">
          <mxGeometry x="950" y="1490" width="240" height="100" as="geometry">
            <mxRectangle x="250" y="510" width="170" height="30" as="alternateBounds" />
          </mxGeometry>
        </mxCell>
        <mxCell id="9z_sz9Uvfd6QXb82SshP-12" value="Entry / Product/service has been successfully completed&lt;div&gt;&lt;div&gt;Do /&amp;nbsp;&lt;span style=&quot;background-color: initial;&quot;&gt;Display &quot;Rate Service/Product&quot; button&lt;/span&gt;&lt;/div&gt;&lt;/div&gt;" style="text;strokeColor=none;fillColor=none;align=left;verticalAlign=middle;spacingLeft=4;spacingRight=4;overflow=hidden;points=[[0,0.5],[1,0.5]];portConstraint=eastwest;rotatable=0;whiteSpace=wrap;html=1;" vertex="1" parent="9z_sz9Uvfd6QXb82SshP-11">
          <mxGeometry y="30" width="240" height="70" as="geometry" />
        </mxCell>
        <mxCell id="9z_sz9Uvfd6QXb82SshP-14" value="Click Rate Service/Product" style="curved=1;startArrow=none;;entryX=0.5;entryY=0;entryDx=0;entryDy=0;edgeStyle=orthogonalEdgeStyle;endArrow=open;endFill=0;exitX=0.51;exitY=1.004;exitDx=0;exitDy=0;exitPerimeter=0;" edge="1" parent="1" source="9z_sz9Uvfd6QXb82SshP-12" target="9z_sz9Uvfd6QXb82SshP-15">
          <mxGeometry x="-0.0875" y="-5" relative="1" as="geometry">
            <mxPoint x="1025.46" y="1650" as="sourcePoint" />
            <mxPoint x="1149.46" y="1687" as="targetPoint" />
            <mxPoint as="offset" />
            <Array as="points">
              <mxPoint x="1072" y="1637" />
              <mxPoint x="1070" y="1637" />
            </Array>
          </mxGeometry>
        </mxCell>
        <mxCell id="9z_sz9Uvfd6QXb82SshP-15" value="Choose Rating" style="swimlane;fontStyle=0;childLayout=stackLayout;horizontal=1;startSize=30;horizontalStack=0;resizeParent=1;resizeParentMax=0;resizeLast=0;collapsible=1;marginBottom=0;whiteSpace=wrap;html=1;rounded=1;aspect=fixed;" vertex="1" parent="1">
          <mxGeometry x="950" y="1640" width="240" height="100" as="geometry">
            <mxRectangle x="250" y="510" width="170" height="30" as="alternateBounds" />
          </mxGeometry>
        </mxCell>
        <mxCell id="9z_sz9Uvfd6QXb82SshP-16" value="Do / Display user must rate between 1 to 5 stars" style="text;strokeColor=none;fillColor=none;align=left;verticalAlign=middle;spacingLeft=4;spacingRight=4;overflow=hidden;points=[[0,0.5],[1,0.5]];portConstraint=eastwest;rotatable=0;whiteSpace=wrap;html=1;" vertex="1" parent="9z_sz9Uvfd6QXb82SshP-15">
          <mxGeometry y="30" width="240" height="70" as="geometry" />
        </mxCell>
        <mxCell id="9z_sz9Uvfd6QXb82SshP-21" value="Optional Photo Upload" style="swimlane;fontStyle=0;childLayout=stackLayout;horizontal=1;startSize=30;horizontalStack=0;resizeParent=1;resizeParentMax=0;resizeLast=0;collapsible=1;marginBottom=0;whiteSpace=wrap;html=1;rounded=1;aspect=fixed;" vertex="1" parent="1">
          <mxGeometry x="960" y="1920" width="240" height="100" as="geometry">
            <mxRectangle x="250" y="510" width="170" height="30" as="alternateBounds" />
          </mxGeometry>
        </mxCell>
        <mxCell id="9z_sz9Uvfd6QXb82SshP-22" value="Entry / Upload file is empty&lt;div&gt;Do / Display the option for the user to upload a photo/review&lt;/div&gt;" style="text;strokeColor=none;fillColor=none;align=left;verticalAlign=middle;spacingLeft=4;spacingRight=4;overflow=hidden;points=[[0,0.5],[1,0.5]];portConstraint=eastwest;rotatable=0;whiteSpace=wrap;html=1;" vertex="1" parent="9z_sz9Uvfd6QXb82SshP-21">
          <mxGeometry y="30" width="240" height="70" as="geometry" />
        </mxCell>
        <mxCell id="9z_sz9Uvfd6QXb82SshP-31" value="Verify Photo Upload" style="swimlane;fontStyle=0;childLayout=stackLayout;horizontal=1;startSize=30;horizontalStack=0;resizeParent=1;resizeParentMax=0;resizeLast=0;collapsible=1;marginBottom=0;whiteSpace=wrap;html=1;rounded=1;aspect=fixed;" vertex="1" parent="1">
          <mxGeometry x="1280" y="1440" width="240" height="100" as="geometry">
            <mxRectangle x="250" y="510" width="170" height="30" as="alternateBounds" />
          </mxGeometry>
        </mxCell>
        <mxCell id="9z_sz9Uvfd6QXb82SshP-32" value="Entry / User uploads a photo&lt;div&gt;Exit /&amp;nbsp;&lt;span style=&quot;font-size: 11px; text-align: center; text-wrap: nowrap; background-color: rgb(255, 255, 255);&quot;&gt;If sucessful, proceed to the next step&lt;/span&gt;&lt;br&gt;&lt;div&gt;Do / Display if the photo upload is successful&lt;/div&gt;&lt;/div&gt;" style="text;strokeColor=none;fillColor=none;align=left;verticalAlign=middle;spacingLeft=4;spacingRight=4;overflow=hidden;points=[[0,0.5],[1,0.5]];portConstraint=eastwest;rotatable=0;whiteSpace=wrap;html=1;" vertex="1" parent="9z_sz9Uvfd6QXb82SshP-31">
          <mxGeometry y="30" width="240" height="70" as="geometry" />
        </mxCell>
        <mxCell id="9z_sz9Uvfd6QXb82SshP-33" value="" style="curved=1;startArrow=none;;edgeStyle=orthogonalEdgeStyle;endArrow=open;endFill=0;entryX=0;entryY=0.5;entryDx=0;entryDy=0;exitX=1;exitY=0.5;exitDx=0;exitDy=0;" edge="1" parent="1" source="9z_sz9Uvfd6QXb82SshP-22" target="9z_sz9Uvfd6QXb82SshP-32">
          <mxGeometry relative="1" as="geometry">
            <mxPoint x="1290" y="1890" as="sourcePoint" />
            <mxPoint x="1282" y="1957" as="targetPoint" />
            <Array as="points">
              <mxPoint x="1280" y="1915" />
              <mxPoint x="1280" y="1555" />
            </Array>
          </mxGeometry>
        </mxCell>
        <mxCell id="9z_sz9Uvfd6QXb82SshP-34" value="Uploads a photo" style="edgeLabel;html=1;align=center;verticalAlign=middle;resizable=0;points=[];" connectable="0" vertex="1" parent="9z_sz9Uvfd6QXb82SshP-33">
          <mxGeometry x="-0.0266" y="4" relative="1" as="geometry">
            <mxPoint x="1" y="-11" as="offset" />
          </mxGeometry>
        </mxCell>
        <mxCell id="9z_sz9Uvfd6QXb82SshP-37" value="Enter Review Text" style="swimlane;fontStyle=0;childLayout=stackLayout;horizontal=1;startSize=30;horizontalStack=0;resizeParent=1;resizeParentMax=0;resizeLast=0;collapsible=1;marginBottom=0;whiteSpace=wrap;html=1;rounded=1;aspect=fixed;" vertex="1" parent="1">
          <mxGeometry x="1360" y="1630" width="240" height="100" as="geometry">
            <mxRectangle x="250" y="510" width="170" height="30" as="alternateBounds" />
          </mxGeometry>
        </mxCell>
        <mxCell id="9z_sz9Uvfd6QXb82SshP-38" value="Entry / Text box is empty&lt;div&gt;Do / Display that user must give a text review&lt;/div&gt;" style="text;strokeColor=none;fillColor=none;align=left;verticalAlign=middle;spacingLeft=4;spacingRight=4;overflow=hidden;points=[[0,0.5],[1,0.5]];portConstraint=eastwest;rotatable=0;whiteSpace=wrap;html=1;" vertex="1" parent="9z_sz9Uvfd6QXb82SshP-37">
          <mxGeometry y="30" width="240" height="70" as="geometry" />
        </mxCell>
        <mxCell id="9z_sz9Uvfd6QXb82SshP-39" value="" style="curved=1;startArrow=none;;edgeStyle=orthogonalEdgeStyle;endArrow=open;endFill=0;entryX=0;entryY=0.5;entryDx=0;entryDy=0;exitX=1;exitY=0.5;exitDx=0;exitDy=0;" edge="1" parent="1" target="9z_sz9Uvfd6QXb82SshP-38">
          <mxGeometry relative="1" as="geometry">
            <mxPoint x="1200" y="1925" as="sourcePoint" />
            <mxPoint x="1350" y="1565" as="targetPoint" />
            <Array as="points">
              <mxPoint x="1320" y="1925" />
              <mxPoint x="1320" y="1719" />
            </Array>
          </mxGeometry>
        </mxCell>
        <mxCell id="9z_sz9Uvfd6QXb82SshP-40" value="Clicks on text box" style="edgeLabel;html=1;align=center;verticalAlign=middle;resizable=0;points=[];" connectable="0" vertex="1" parent="9z_sz9Uvfd6QXb82SshP-39">
          <mxGeometry x="-0.0266" y="4" relative="1" as="geometry">
            <mxPoint x="1" y="-11" as="offset" />
          </mxGeometry>
        </mxCell>
        <mxCell id="9z_sz9Uvfd6QXb82SshP-41" value="" style="curved=1;startArrow=none;;edgeStyle=orthogonalEdgeStyle;endArrow=open;endFill=0;entryX=0.5;entryY=0;entryDx=0;entryDy=0;exitX=0.518;exitY=1.014;exitDx=0;exitDy=0;exitPerimeter=0;" edge="1" parent="1">
          <mxGeometry relative="1" as="geometry">
            <mxPoint x="1404.3200000000002" y="1540" as="sourcePoint" />
            <mxPoint x="1480" y="1629.02" as="targetPoint" />
            <Array as="points">
              <mxPoint x="1464" y="1619.02" />
              <mxPoint x="1510" y="1619.02" />
            </Array>
          </mxGeometry>
        </mxCell>
        <mxCell id="9z_sz9Uvfd6QXb82SshP-42" value="Clicks on text box" style="edgeLabel;html=1;align=center;verticalAlign=middle;resizable=0;points=[];" connectable="0" vertex="1" parent="9z_sz9Uvfd6QXb82SshP-41">
          <mxGeometry x="-0.0266" y="4" relative="1" as="geometry">
            <mxPoint x="1" y="-11" as="offset" />
          </mxGeometry>
        </mxCell>
        <mxCell id="PDoHeW5xkxOKr_nrV42Z-14" style="edgeStyle=orthogonalEdgeStyle;rounded=0;orthogonalLoop=1;jettySize=auto;html=1;exitX=1;exitY=0.5;exitDx=0;exitDy=0;" edge="1" parent="1" source="PDoHeW5xkxOKr_nrV42Z-9">
          <mxGeometry relative="1" as="geometry">
            <mxPoint x="-120" y="1505" as="targetPoint" />
            <Array as="points">
              <mxPoint x="-120" y="1455" />
              <mxPoint x="-120" y="1505" />
            </Array>
          </mxGeometry>
        </mxCell>
        <mxCell id="PDoHeW5xkxOKr_nrV42Z-9" value="" style="ellipse;fillColor=strokeColor;" vertex="1" parent="1">
          <mxGeometry x="-256.54999999999995" y="1440" width="30" height="30" as="geometry" />
        </mxCell>
        <mxCell id="9z_sz9Uvfd6QXb82SshP-44" value="Review Submission Verification" style="swimlane;fontStyle=0;childLayout=stackLayout;horizontal=1;startSize=30;horizontalStack=0;resizeParent=1;resizeParentMax=0;resizeLast=0;collapsible=1;marginBottom=0;whiteSpace=wrap;html=1;rounded=1;aspect=fixed;" vertex="1" parent="1">
          <mxGeometry x="1370" y="1877" width="250" height="100" as="geometry">
            <mxRectangle x="250" y="510" width="170" height="30" as="alternateBounds" />
          </mxGeometry>
        </mxCell>
        <mxCell id="9z_sz9Uvfd6QXb82SshP-46" value="" style="curved=1;startArrow=none;;edgeStyle=orthogonalEdgeStyle;endArrow=open;endFill=0;exitX=0.502;exitY=1.026;exitDx=0;exitDy=0;exitPerimeter=0;" edge="1" parent="9z_sz9Uvfd6QXb82SshP-44" source="9z_sz9Uvfd6QXb82SshP-38">
          <mxGeometry relative="1" as="geometry">
            <mxPoint x="96.98000000000002" y="-53" as="sourcePoint" />
            <mxPoint x="120" y="-4" as="targetPoint" />
            <Array as="points">
              <mxPoint x="120" y="-145" />
            </Array>
          </mxGeometry>
        </mxCell>
        <mxCell id="9z_sz9Uvfd6QXb82SshP-47" value="User clicks on Submit review" style="edgeLabel;html=1;align=center;verticalAlign=middle;resizable=0;points=[];" connectable="0" vertex="1" parent="9z_sz9Uvfd6QXb82SshP-46">
          <mxGeometry x="-0.0266" y="4" relative="1" as="geometry">
            <mxPoint x="1" y="-11" as="offset" />
          </mxGeometry>
        </mxCell>
        <mxCell id="9z_sz9Uvfd6QXb82SshP-45" value="Entry / System verifies the review has been successfully submitted&lt;div&gt;Do /&amp;nbsp;&lt;span style=&quot;background-color: initial;&quot;&gt;Display a success message confirming the review submission&lt;/span&gt;&lt;/div&gt;" style="text;strokeColor=none;fillColor=none;align=left;verticalAlign=middle;spacingLeft=4;spacingRight=4;overflow=hidden;points=[[0,0.5],[1,0.5]];portConstraint=eastwest;rotatable=0;whiteSpace=wrap;html=1;" vertex="1" parent="9z_sz9Uvfd6QXb82SshP-44">
          <mxGeometry y="30" width="250" height="70" as="geometry" />
        </mxCell>
        <mxCell id="PDoHeW5xkxOKr_nrV42Z-22" value="Selects Cancel Button" style="edgeStyle=orthogonalEdgeStyle;rounded=0;orthogonalLoop=1;jettySize=auto;html=1;exitX=0.25;exitY=0;exitDx=0;exitDy=0;entryX=0.75;entryY=0;entryDx=0;entryDy=0;" edge="1" parent="1" source="PDoHeW5xkxOKr_nrV42Z-18" target="rV8VTiqXhCVp9IZoswe--163">
          <mxGeometry relative="1" as="geometry" />
        </mxCell>
        <mxCell id="PDoHeW5xkxOKr_nrV42Z-18" value="Create New Listing" style="swimlane;fontStyle=0;childLayout=stackLayout;horizontal=1;startSize=30;horizontalStack=0;resizeParent=1;resizeParentMax=0;resizeLast=0;collapsible=1;marginBottom=0;whiteSpace=wrap;html=1;rounded=1;aspect=fixed;" vertex="1" parent="1">
          <mxGeometry x="100.00000000000006" y="1505" width="200" height="100" as="geometry">
            <mxRectangle x="250" y="510" width="170" height="30" as="alternateBounds" />
          </mxGeometry>
        </mxCell>
        <mxCell id="PDoHeW5xkxOKr_nrV42Z-19" value="&lt;div&gt;Entry / Listing form fields are empty&lt;/div&gt;do / Wait for user to enter listing details" style="text;strokeColor=none;fillColor=none;align=left;verticalAlign=middle;spacingLeft=4;spacingRight=4;overflow=hidden;points=[[0,0.5],[1,0.5]];portConstraint=eastwest;rotatable=0;whiteSpace=wrap;html=1;" vertex="1" parent="PDoHeW5xkxOKr_nrV42Z-18">
          <mxGeometry y="30" width="200" height="70" as="geometry" />
        </mxCell>
        <mxCell id="PDoHeW5xkxOKr_nrV42Z-20" style="edgeStyle=orthogonalEdgeStyle;rounded=0;orthogonalLoop=1;jettySize=auto;html=1;exitX=1;exitY=0.5;exitDx=0;exitDy=0;entryX=0;entryY=0.5;entryDx=0;entryDy=0;" edge="1" parent="1" source="rV8VTiqXhCVp9IZoswe--164" target="PDoHeW5xkxOKr_nrV42Z-19">
          <mxGeometry relative="1" as="geometry" />
        </mxCell>
        <mxCell id="PDoHeW5xkxOKr_nrV42Z-41" value="Create A&lt;div&gt;Listing&lt;/div&gt;" style="edgeLabel;html=1;align=center;verticalAlign=middle;resizable=0;points=[];" vertex="1" connectable="0" parent="PDoHeW5xkxOKr_nrV42Z-20">
          <mxGeometry x="-0.1226" y="4" relative="1" as="geometry">
            <mxPoint as="offset" />
          </mxGeometry>
        </mxCell>
        <mxCell id="PDoHeW5xkxOKr_nrV42Z-32" style="edgeStyle=orthogonalEdgeStyle;rounded=0;orthogonalLoop=1;jettySize=auto;html=1;exitX=0.5;exitY=1;exitDx=0;exitDy=0;entryX=0.5;entryY=0;entryDx=0;entryDy=0;" edge="1" parent="1" source="PDoHeW5xkxOKr_nrV42Z-23" target="PDoHeW5xkxOKr_nrV42Z-30">
          <mxGeometry relative="1" as="geometry" />
        </mxCell>
        <mxCell id="PDoHeW5xkxOKr_nrV42Z-33" value="Click Edit Listing" style="edgeLabel;html=1;align=center;verticalAlign=middle;resizable=0;points=[];" vertex="1" connectable="0" parent="PDoHeW5xkxOKr_nrV42Z-32">
          <mxGeometry x="-0.2186" relative="1" as="geometry">
            <mxPoint as="offset" />
          </mxGeometry>
        </mxCell>
        <mxCell id="PDoHeW5xkxOKr_nrV42Z-23" value="Listing is created" style="rounded=1;whiteSpace=wrap;html=1;arcSize=20;" vertex="1" parent="1">
          <mxGeometry x="440" y="1430" width="120" height="60" as="geometry" />
        </mxCell>
        <mxCell id="PDoHeW5xkxOKr_nrV42Z-28" style="edgeStyle=orthogonalEdgeStyle;rounded=0;orthogonalLoop=1;jettySize=auto;html=1;exitX=1;exitY=0.5;exitDx=0;exitDy=0;entryX=0;entryY=0.5;entryDx=0;entryDy=0;" edge="1" parent="1" source="PDoHeW5xkxOKr_nrV42Z-19" target="PDoHeW5xkxOKr_nrV42Z-23">
          <mxGeometry relative="1" as="geometry" />
        </mxCell>
        <mxCell id="PDoHeW5xkxOKr_nrV42Z-29" value="Submit Listing Info" style="edgeLabel;html=1;align=center;verticalAlign=middle;resizable=0;points=[];" vertex="1" connectable="0" parent="PDoHeW5xkxOKr_nrV42Z-28">
          <mxGeometry x="0.2693" y="-1" relative="1" as="geometry">
            <mxPoint as="offset" />
          </mxGeometry>
        </mxCell>
        <mxCell id="PDoHeW5xkxOKr_nrV42Z-30" value="Edit Listing" style="swimlane;fontStyle=0;childLayout=stackLayout;horizontal=1;startSize=30;horizontalStack=0;resizeParent=1;resizeParentMax=0;resizeLast=0;collapsible=1;marginBottom=0;whiteSpace=wrap;html=1;rounded=1;aspect=fixed;" vertex="1" parent="1">
          <mxGeometry x="399.00000000000006" y="1550" width="200" height="70" as="geometry">
            <mxRectangle x="250" y="510" width="170" height="30" as="alternateBounds" />
          </mxGeometry>
        </mxCell>
        <mxCell id="PDoHeW5xkxOKr_nrV42Z-31" value="do / Wait for user to make edits" style="text;strokeColor=none;fillColor=none;align=left;verticalAlign=middle;spacingLeft=4;spacingRight=4;overflow=hidden;points=[[0,0.5],[1,0.5]];portConstraint=eastwest;rotatable=0;whiteSpace=wrap;html=1;" vertex="1" parent="PDoHeW5xkxOKr_nrV42Z-30">
          <mxGeometry y="30" width="200" height="40" as="geometry" />
        </mxCell>
        <mxCell id="PDoHeW5xkxOKr_nrV42Z-34" style="edgeStyle=orthogonalEdgeStyle;rounded=0;orthogonalLoop=1;jettySize=auto;html=1;exitX=0;exitY=0.5;exitDx=0;exitDy=0;entryX=0.797;entryY=0.995;entryDx=0;entryDy=0;entryPerimeter=0;" edge="1" parent="1" source="PDoHeW5xkxOKr_nrV42Z-31" target="rV8VTiqXhCVp9IZoswe--164">
          <mxGeometry relative="1" as="geometry">
            <Array as="points">
              <mxPoint x="380" y="1600" />
              <mxPoint x="380" y="1625" />
              <mxPoint x="-4" y="1625" />
            </Array>
          </mxGeometry>
        </mxCell>
        <mxCell id="PDoHeW5xkxOKr_nrV42Z-35" value="Confirm Edit" style="edgeLabel;html=1;align=center;verticalAlign=middle;resizable=0;points=[];" vertex="1" connectable="0" parent="PDoHeW5xkxOKr_nrV42Z-34">
          <mxGeometry x="0.1747" y="-3" relative="1" as="geometry">
            <mxPoint x="1" as="offset" />
          </mxGeometry>
        </mxCell>
        <mxCell id="PDoHeW5xkxOKr_nrV42Z-36" value="Delete Listing" style="swimlane;fontStyle=0;childLayout=stackLayout;horizontal=1;startSize=30;horizontalStack=0;resizeParent=1;resizeParentMax=0;resizeLast=0;collapsible=1;marginBottom=0;whiteSpace=wrap;html=1;rounded=1;aspect=fixed;" vertex="1" parent="1">
          <mxGeometry x="400.00000000000006" y="1675" width="200" height="100" as="geometry">
            <mxRectangle x="250" y="510" width="170" height="30" as="alternateBounds" />
          </mxGeometry>
        </mxCell>
        <mxCell id="PDoHeW5xkxOKr_nrV42Z-37" value="do / Wait for user confirm deletion" style="text;strokeColor=none;fillColor=none;align=left;verticalAlign=middle;spacingLeft=4;spacingRight=4;overflow=hidden;points=[[0,0.5],[1,0.5]];portConstraint=eastwest;rotatable=0;whiteSpace=wrap;html=1;" vertex="1" parent="PDoHeW5xkxOKr_nrV42Z-36">
          <mxGeometry y="30" width="200" height="70" as="geometry" />
        </mxCell>
        <mxCell id="PDoHeW5xkxOKr_nrV42Z-42" value="" style="endArrow=classic;html=1;rounded=0;" edge="1" parent="1">
          <mxGeometry width="50" height="50" relative="1" as="geometry">
            <mxPoint x="499.16999999999996" y="1620" as="sourcePoint" />
            <mxPoint x="499.16999999999996" y="1675" as="targetPoint" />
          </mxGeometry>
        </mxCell>
        <mxCell id="PDoHeW5xkxOKr_nrV42Z-44" value="Click Delete Listing" style="edgeLabel;html=1;align=center;verticalAlign=middle;resizable=0;points=[];" vertex="1" connectable="0" parent="PDoHeW5xkxOKr_nrV42Z-42">
          <mxGeometry x="-0.0424" y="-1" relative="1" as="geometry">
            <mxPoint as="offset" />
          </mxGeometry>
        </mxCell>
        <mxCell id="PDoHeW5xkxOKr_nrV42Z-79" style="edgeStyle=orthogonalEdgeStyle;rounded=0;orthogonalLoop=1;jettySize=auto;html=1;exitX=0;exitY=0.5;exitDx=0;exitDy=0;entryX=1.001;entryY=0.662;entryDx=0;entryDy=0;entryPerimeter=0;" edge="1" parent="1" source="rV8VTiqXhCVp9IZoswe--167" target="rV8VTiqXhCVp9IZoswe--160">
          <mxGeometry relative="1" as="geometry" />
        </mxCell>
        <mxCell id="PDoHeW5xkxOKr_nrV42Z-80" value="Redirect back to listing" style="edgeLabel;html=1;align=center;verticalAlign=middle;resizable=0;points=[];" vertex="1" connectable="0" parent="PDoHeW5xkxOKr_nrV42Z-79">
          <mxGeometry x="0.015" y="-2" relative="1" as="geometry">
            <mxPoint x="-5" y="-2" as="offset" />
          </mxGeometry>
        </mxCell>
        <mxCell id="PDoHeW5xkxOKr_nrV42Z-81" value="Filter Listings" style="swimlane;fontStyle=0;childLayout=stackLayout;horizontal=1;startSize=30;horizontalStack=0;resizeParent=1;resizeParentMax=0;resizeLast=0;collapsible=1;marginBottom=0;whiteSpace=wrap;html=1;rounded=1;aspect=fixed;" vertex="1" parent="1">
          <mxGeometry x="-139.99999999999994" y="1830" width="171.11" height="100" as="geometry">
            <mxRectangle x="250" y="510" width="170" height="30" as="alternateBounds" />
          </mxGeometry>
        </mxCell>
        <mxCell id="PDoHeW5xkxOKr_nrV42Z-82" value="&lt;div&gt;Entry / No filters are applied&lt;/div&gt;do / Wait for filter options to be selected" style="text;strokeColor=none;fillColor=none;align=left;verticalAlign=middle;spacingLeft=4;spacingRight=4;overflow=hidden;points=[[0,0.5],[1,0.5]];portConstraint=eastwest;rotatable=0;whiteSpace=wrap;html=1;" vertex="1" parent="PDoHeW5xkxOKr_nrV42Z-81">
          <mxGeometry y="30" width="171.11" height="70" as="geometry" />
        </mxCell>
        <mxCell id="PDoHeW5xkxOKr_nrV42Z-83" style="edgeStyle=orthogonalEdgeStyle;rounded=0;orthogonalLoop=1;jettySize=auto;html=1;exitX=0;exitY=0.5;exitDx=0;exitDy=0;entryX=0;entryY=0.5;entryDx=0;entryDy=0;" edge="1" parent="1" source="rV8VTiqXhCVp9IZoswe--164" target="PDoHeW5xkxOKr_nrV42Z-81">
          <mxGeometry relative="1" as="geometry">
            <Array as="points">
              <mxPoint x="-200" y="1570" />
              <mxPoint x="-200" y="1880" />
            </Array>
          </mxGeometry>
        </mxCell>
        <mxCell id="PDoHeW5xkxOKr_nrV42Z-84" value="Select Filter" style="edgeLabel;html=1;align=center;verticalAlign=middle;resizable=0;points=[];" vertex="1" connectable="0" parent="PDoHeW5xkxOKr_nrV42Z-83">
          <mxGeometry x="-0.0171" y="1" relative="1" as="geometry">
            <mxPoint as="offset" />
          </mxGeometry>
        </mxCell>
        <mxCell id="PDoHeW5xkxOKr_nrV42Z-88" value="Filters are applied" style="rounded=1;whiteSpace=wrap;html=1;arcSize=20;" vertex="1" parent="1">
          <mxGeometry x="230" y="1900" width="120" height="60" as="geometry" />
        </mxCell>
        <mxCell id="PDoHeW5xkxOKr_nrV42Z-90" style="edgeStyle=orthogonalEdgeStyle;rounded=0;orthogonalLoop=1;jettySize=auto;html=1;exitX=0;exitY=0.5;exitDx=0;exitDy=0;entryX=-0.002;entryY=0.221;entryDx=0;entryDy=0;entryPerimeter=0;" edge="1" parent="1" source="PDoHeW5xkxOKr_nrV42Z-88" target="rV8VTiqXhCVp9IZoswe--164">
          <mxGeometry relative="1" as="geometry">
            <Array as="points">
              <mxPoint x="230" y="1950" />
              <mxPoint x="-250" y="1950" />
              <mxPoint x="-250" y="1551" />
            </Array>
          </mxGeometry>
        </mxCell>
        <mxCell id="PDoHeW5xkxOKr_nrV42Z-98" value="Display Listings with filter" style="edgeLabel;html=1;align=center;verticalAlign=middle;resizable=0;points=[];" vertex="1" connectable="0" parent="PDoHeW5xkxOKr_nrV42Z-90">
          <mxGeometry x="-0.4243" y="2" relative="1" as="geometry">
            <mxPoint as="offset" />
          </mxGeometry>
        </mxCell>
        <mxCell id="PDoHeW5xkxOKr_nrV42Z-100" style="edgeStyle=orthogonalEdgeStyle;rounded=0;orthogonalLoop=1;jettySize=auto;html=1;entryX=0;entryY=0.5;entryDx=0;entryDy=0;" edge="1" parent="1" source="PDoHeW5xkxOKr_nrV42Z-82" target="PDoHeW5xkxOKr_nrV42Z-88">
          <mxGeometry relative="1" as="geometry" />
        </mxCell>
        <mxCell id="PDoHeW5xkxOKr_nrV42Z-101" value="Click on selected filter" style="edgeLabel;html=1;align=center;verticalAlign=middle;resizable=0;points=[];" vertex="1" connectable="0" parent="PDoHeW5xkxOKr_nrV42Z-100">
          <mxGeometry x="-0.0237" y="4" relative="1" as="geometry">
            <mxPoint y="1" as="offset" />
          </mxGeometry>
        </mxCell>
        <mxCell id="PDoHeW5xkxOKr_nrV42Z-105" style="edgeStyle=orthogonalEdgeStyle;rounded=0;orthogonalLoop=1;jettySize=auto;html=1;entryX=1;entryY=0.75;entryDx=0;entryDy=0;" edge="1" parent="1" source="rV8VTiqXhCVp9IZoswe--154" target="rV8VTiqXhCVp9IZoswe--167">
          <mxGeometry relative="1" as="geometry">
            <Array as="points">
              <mxPoint x="310" y="1872" />
              <mxPoint x="310" y="1865" />
            </Array>
          </mxGeometry>
        </mxCell>
        <mxCell id="PDoHeW5xkxOKr_nrV42Z-106" value="Accept/Reject Offer" style="edgeLabel;html=1;align=center;verticalAlign=middle;resizable=0;points=[];" vertex="1" connectable="0" parent="PDoHeW5xkxOKr_nrV42Z-105">
          <mxGeometry x="0.0189" relative="1" as="geometry">
            <mxPoint as="offset" />
          </mxGeometry>
        </mxCell>
        <mxCell id="PDoHeW5xkxOKr_nrV42Z-109" style="edgeStyle=orthogonalEdgeStyle;rounded=0;orthogonalLoop=1;jettySize=auto;html=1;" edge="1" parent="1" source="rV8VTiqXhCVp9IZoswe--163">
          <mxGeometry relative="1" as="geometry">
            <mxPoint x="420" y="1620" as="targetPoint" />
            <Array as="points">
              <mxPoint x="-20" y="1650" />
              <mxPoint x="420" y="1650" />
            </Array>
          </mxGeometry>
        </mxCell>
        <mxCell id="PDoHeW5xkxOKr_nrV42Z-110" value="Clicks Edit Listing" style="edgeLabel;html=1;align=center;verticalAlign=middle;resizable=0;points=[];" vertex="1" connectable="0" parent="PDoHeW5xkxOKr_nrV42Z-109">
          <mxGeometry x="-0.212" y="-1" relative="1" as="geometry">
            <mxPoint x="32" as="offset" />
          </mxGeometry>
        </mxCell>
        <mxCell id="PDoHeW5xkxOKr_nrV42Z-111" style="edgeStyle=orthogonalEdgeStyle;rounded=0;orthogonalLoop=1;jettySize=auto;html=1;entryX=0.5;entryY=0.989;entryDx=0;entryDy=0;entryPerimeter=0;" edge="1" parent="1" source="PDoHeW5xkxOKr_nrV42Z-37" target="rV8VTiqXhCVp9IZoswe--164">
          <mxGeometry relative="1" as="geometry">
            <Array as="points">
              <mxPoint x="300" y="1740" />
              <mxPoint x="300" y="1690" />
              <mxPoint x="-54" y="1690" />
            </Array>
          </mxGeometry>
        </mxCell>
        <mxCell id="PDoHeW5xkxOKr_nrV42Z-112" value="Confirm Deletion" style="edgeLabel;html=1;align=center;verticalAlign=middle;resizable=0;points=[];" vertex="1" connectable="0" parent="PDoHeW5xkxOKr_nrV42Z-111">
          <mxGeometry x="-0.0101" y="2" relative="1" as="geometry">
            <mxPoint x="27" as="offset" />
          </mxGeometry>
        </mxCell>
        <mxCell id="PDoHeW5xkxOKr_nrV42Z-127" style="edgeStyle=orthogonalEdgeStyle;rounded=0;orthogonalLoop=1;jettySize=auto;html=1;entryX=0.5;entryY=0;entryDx=0;entryDy=0;" edge="1" parent="1">
          <mxGeometry relative="1" as="geometry">
            <mxPoint x="905.5450000000001" y="801.5" as="targetPoint" />
          </mxGeometry>
        </mxCell>
        <mxCell id="PDoHeW5xkxOKr_nrV42Z-119" style="edgeStyle=orthogonalEdgeStyle;rounded=0;orthogonalLoop=1;jettySize=auto;html=1;exitX=0.5;exitY=1;exitDx=0;exitDy=0;entryX=0.413;entryY=0.015;entryDx=0;entryDy=0;entryPerimeter=0;" edge="1" parent="1" source="rV8VTiqXhCVp9IZoswe--60" target="rV8VTiqXhCVp9IZoswe--76">
          <mxGeometry relative="1" as="geometry" />
        </mxCell>
        <mxCell id="PDoHeW5xkxOKr_nrV42Z-120" value="Yes" style="edgeLabel;html=1;align=center;verticalAlign=middle;resizable=0;points=[];" vertex="1" connectable="0" parent="PDoHeW5xkxOKr_nrV42Z-119">
          <mxGeometry x="-0.3102" y="-1" relative="1" as="geometry">
            <mxPoint y="-1" as="offset" />
          </mxGeometry>
        </mxCell>
        <mxCell id="PDoHeW5xkxOKr_nrV42Z-121" style="edgeStyle=orthogonalEdgeStyle;rounded=0;orthogonalLoop=1;jettySize=auto;html=1;entryX=0;entryY=0.5;entryDx=0;entryDy=0;" edge="1" parent="1" source="rV8VTiqXhCVp9IZoswe--77" target="rV8VTiqXhCVp9IZoswe--52">
          <mxGeometry relative="1" as="geometry" />
        </mxCell>
        <mxCell id="PDoHeW5xkxOKr_nrV42Z-122" value="Select&lt;div&gt;Search&lt;/div&gt;&lt;div&gt;Bar&lt;/div&gt;" style="edgeLabel;html=1;align=center;verticalAlign=middle;resizable=0;points=[];" vertex="1" connectable="0" parent="PDoHeW5xkxOKr_nrV42Z-121">
          <mxGeometry x="0.1632" y="3" relative="1" as="geometry">
            <mxPoint as="offset" />
          </mxGeometry>
        </mxCell>
        <mxCell id="PDoHeW5xkxOKr_nrV42Z-132" value="Request for listings data" style="swimlane;fontStyle=0;childLayout=stackLayout;horizontal=1;startSize=30;horizontalStack=0;resizeParent=1;resizeParentMax=0;resizeLast=0;collapsible=1;marginBottom=0;whiteSpace=wrap;html=1;rounded=1;aspect=fixed;" vertex="1" parent="1">
          <mxGeometry x="128.89000000000004" y="1370" width="200" height="80" as="geometry">
            <mxRectangle x="250" y="510" width="170" height="30" as="alternateBounds" />
          </mxGeometry>
        </mxCell>
        <mxCell id="PDoHeW5xkxOKr_nrV42Z-133" value="do / Fetch the set of listings for selected page" style="text;strokeColor=none;fillColor=none;align=left;verticalAlign=middle;spacingLeft=4;spacingRight=4;overflow=hidden;points=[[0,0.5],[1,0.5]];portConstraint=eastwest;rotatable=0;whiteSpace=wrap;html=1;" vertex="1" parent="PDoHeW5xkxOKr_nrV42Z-132">
          <mxGeometry y="30" width="200" height="50" as="geometry" />
        </mxCell>
        <mxCell id="PDoHeW5xkxOKr_nrV42Z-134" style="edgeStyle=orthogonalEdgeStyle;rounded=0;orthogonalLoop=1;jettySize=auto;html=1;exitX=0.25;exitY=0;exitDx=0;exitDy=0;" edge="1" parent="1" source="rV8VTiqXhCVp9IZoswe--163">
          <mxGeometry relative="1" as="geometry">
            <mxPoint x="126" y="1390" as="targetPoint" />
            <Array as="points">
              <mxPoint x="-97" y="1390" />
              <mxPoint x="126" y="1390" />
            </Array>
          </mxGeometry>
        </mxCell>
        <mxCell id="PDoHeW5xkxOKr_nrV42Z-135" value="Click next/previous page" style="edgeLabel;html=1;align=center;verticalAlign=middle;resizable=0;points=[];" vertex="1" connectable="0" parent="PDoHeW5xkxOKr_nrV42Z-134">
          <mxGeometry x="-0.0063" y="-2" relative="1" as="geometry">
            <mxPoint x="33" as="offset" />
          </mxGeometry>
        </mxCell>
        <mxCell id="PDoHeW5xkxOKr_nrV42Z-136" style="edgeStyle=orthogonalEdgeStyle;rounded=0;orthogonalLoop=1;jettySize=auto;html=1;exitX=0;exitY=0.5;exitDx=0;exitDy=0;entryX=0.5;entryY=0;entryDx=0;entryDy=0;" edge="1" parent="1" source="PDoHeW5xkxOKr_nrV42Z-133" target="rV8VTiqXhCVp9IZoswe--163">
          <mxGeometry relative="1" as="geometry" />
        </mxCell>
        <mxCell id="PDoHeW5xkxOKr_nrV42Z-137" value="Display Listings data" style="edgeLabel;html=1;align=center;verticalAlign=middle;resizable=0;points=[];" vertex="1" connectable="0" parent="PDoHeW5xkxOKr_nrV42Z-136">
          <mxGeometry x="-0.1574" y="3" relative="1" as="geometry">
            <mxPoint x="1" as="offset" />
          </mxGeometry>
        </mxCell>
        <mxCell id="PDoHeW5xkxOKr_nrV42Z-140" style="edgeStyle=orthogonalEdgeStyle;rounded=0;orthogonalLoop=1;jettySize=auto;html=1;" edge="1" parent="1" source="9z_sz9Uvfd6QXb82SshP-45">
          <mxGeometry relative="1" as="geometry">
            <mxPoint x="-140" y="1520" as="targetPoint" />
            <Array as="points">
              <mxPoint x="1515" y="2100" />
              <mxPoint x="-430" y="2100" />
              <mxPoint x="-430" y="1520" />
            </Array>
          </mxGeometry>
        </mxCell>
        <mxCell id="PDoHeW5xkxOKr_nrV42Z-141" value="Redirect back to Listings Page" style="edgeLabel;html=1;align=center;verticalAlign=middle;resizable=0;points=[];" connectable="0" vertex="1" parent="PDoHeW5xkxOKr_nrV42Z-140">
          <mxGeometry x="-0.3125" y="2" relative="1" as="geometry">
            <mxPoint x="1" as="offset" />
          </mxGeometry>
        </mxCell>
        <mxCell id="iAhQ7mdWxj5VUfp4mHiT-9" value="Verification" style="swimlane;fontStyle=0;childLayout=stackLayout;horizontal=1;startSize=30;horizontalStack=0;resizeParent=1;resizeParentMax=0;resizeLast=0;collapsible=1;marginBottom=0;whiteSpace=wrap;html=1;rounded=1;aspect=fixed;" vertex="1" parent="1">
          <mxGeometry x="960" y="1807" width="240" height="70" as="geometry">
            <mxRectangle x="250" y="510" width="170" height="30" as="alternateBounds" />
          </mxGeometry>
        </mxCell>
        <mxCell id="iAhQ7mdWxj5VUfp4mHiT-10" value="&lt;div&gt;Do / Check if Ratings are given&lt;/div&gt;" style="text;strokeColor=none;fillColor=none;align=left;verticalAlign=middle;spacingLeft=4;spacingRight=4;overflow=hidden;points=[[0,0.5],[1,0.5]];portConstraint=eastwest;rotatable=0;whiteSpace=wrap;html=1;" vertex="1" parent="iAhQ7mdWxj5VUfp4mHiT-9">
          <mxGeometry y="30" width="240" height="40" as="geometry" />
        </mxCell>
        <mxCell id="iAhQ7mdWxj5VUfp4mHiT-12" value="Return to display&#xa;[User did not fill in Ratings]" style="curved=1;startArrow=none;;entryX=0;entryY=0.5;entryDx=0;entryDy=0;edgeStyle=orthogonalEdgeStyle;endArrow=open;endFill=0;exitX=0;exitY=0.5;exitDx=0;exitDy=0;" edge="1" parent="1" source="9z_sz9Uvfd6QXb82SshP-16" target="iAhQ7mdWxj5VUfp4mHiT-10">
          <mxGeometry x="-0.1905" y="-30" relative="1" as="geometry">
            <mxPoint x="843.27" y="1820" as="sourcePoint" />
            <mxPoint x="967.27" y="1857" as="targetPoint" />
            <mxPoint as="offset" />
            <Array as="points">
              <mxPoint x="920" y="1725" />
              <mxPoint x="920" y="1855" />
            </Array>
          </mxGeometry>
        </mxCell>
        <mxCell id="iAhQ7mdWxj5VUfp4mHiT-13" value="User selects a rating" style="curved=1;startArrow=none;;entryX=0.454;entryY=-0.02;entryDx=0;entryDy=0;edgeStyle=orthogonalEdgeStyle;endArrow=open;endFill=0;exitX=0.5;exitY=1.032;exitDx=0;exitDy=0;exitPerimeter=0;entryPerimeter=0;" edge="1" parent="1" source="9z_sz9Uvfd6QXb82SshP-16" target="iAhQ7mdWxj5VUfp4mHiT-9">
          <mxGeometry x="-0.1292" y="-20" relative="1" as="geometry">
            <mxPoint x="970" y="1735" as="sourcePoint" />
            <mxPoint x="970" y="1875" as="targetPoint" />
            <mxPoint as="offset" />
            <Array as="points">
              <mxPoint x="1070" y="1790" />
              <mxPoint x="1069" y="1790" />
            </Array>
          </mxGeometry>
        </mxCell>
        <mxCell id="iAhQ7mdWxj5VUfp4mHiT-16" value="" style="curved=1;startArrow=none;;entryX=0.5;entryY=0;entryDx=0;entryDy=0;edgeStyle=orthogonalEdgeStyle;endArrow=open;endFill=0;exitX=0.496;exitY=1.004;exitDx=0;exitDy=0;exitPerimeter=0;" edge="1" parent="1" source="iAhQ7mdWxj5VUfp4mHiT-10" target="9z_sz9Uvfd6QXb82SshP-21">
          <mxGeometry x="1" y="-166" relative="1" as="geometry">
            <mxPoint x="1050.99" y="1840" as="sourcePoint" />
            <mxPoint x="1049.99" y="1904" as="targetPoint" />
            <mxPoint x="17" y="74" as="offset" />
            <Array as="points">
              <mxPoint x="1080" y="1877" />
            </Array>
          </mxGeometry>
        </mxCell>
        <mxCell id="iAhQ7mdWxj5VUfp4mHiT-17" value="Ratings filled" style="edgeLabel;html=1;align=center;verticalAlign=middle;resizable=0;points=[];" connectable="0" vertex="1" parent="iAhQ7mdWxj5VUfp4mHiT-16">
          <mxGeometry x="0.0209" y="-2" relative="1" as="geometry">
            <mxPoint as="offset" />
          </mxGeometry>
        </mxCell>
        <mxCell id="iAhQ7mdWxj5VUfp4mHiT-20" value="" style="curved=1;startArrow=none;;edgeStyle=orthogonalEdgeStyle;endArrow=open;endFill=0;exitX=1;exitY=0.5;exitDx=0;exitDy=0;entryX=1;entryY=0.5;entryDx=0;entryDy=0;" edge="1" parent="1" source="9z_sz9Uvfd6QXb82SshP-45" target="9z_sz9Uvfd6QXb82SshP-38">
          <mxGeometry relative="1" as="geometry">
            <mxPoint x="1490" y="1742" as="sourcePoint" />
            <mxPoint x="1500" y="1883" as="targetPoint" />
            <Array as="points">
              <mxPoint x="1630" y="1942" />
              <mxPoint x="1630" y="1695" />
            </Array>
          </mxGeometry>
        </mxCell>
        <mxCell id="iAhQ7mdWxj5VUfp4mHiT-22" value="If review text is empty" style="edgeLabel;html=1;align=center;verticalAlign=middle;resizable=0;points=[];" connectable="0" vertex="1" parent="iAhQ7mdWxj5VUfp4mHiT-20">
          <mxGeometry x="-0.0376" relative="1" as="geometry">
            <mxPoint as="offset" />
          </mxGeometry>
        </mxCell>
      </root>
    </mxGraphModel>
  </diagram>
</mxfile>
